<svg width="100" height="101" viewBox="0 0 100 101" fill="none" xmlns="http://www.w3.org/2000/svg">
<path d="M33 37.1001L36.5 33.6001L39.2554 30.2849L49.9251 19.6152L30.2849 0L0 30.2849L19.9151 50.175L30.4598 39.6302L33 37.1001Z" fill="#0D0065"/>
<path d="M60.5697 30.2849L66 36.1001L69.7152 39.6302L80.085 50.025L99.8252 30.2849L69.5403 0L49.925 19.6152L60.5697 30.2849Z" fill="#0D0065"/>
<path d="M36.5139 67.1001L34 64.1001L30.285 60.5699L19.9152 50.175L0.175049 69.9152L30.4599 100.2L50.0752 80.5849L39.4055 69.9152L36.5139 67.1001Z" fill="#0D0065"/>
<path d="M80.085 50.0251L69.5402 60.5699L69.7152 60.395L60.7446 69.9152L50.075 80.5849L69.7152 100.2L100 69.9152L80.085 50.0251Z" fill="#0D0065"/>
</svg>
