<svg width="100" height="100" viewBox="0 0 100 100" fill="none" xmlns="http://www.w3.org/2000/svg">
<g clip-path="url(#clip0_1569_2928)">
<path d="M28.5027 2.56006C29.7404 13.1516 38.7428 21.3706 49.6667 21.3706C60.5907 21.3706 69.5931 13.1516 70.8308 2.56006H78.5027C79.6446 12.3316 87.3952 20.0823 97.1667 21.2241V28.895C86.5751 30.1327 78.3562 39.1361 78.3562 50.0601C78.3562 60.984 86.5752 69.9864 97.1667 71.2241V78.895C87.3952 80.0368 79.6446 87.7885 78.5027 97.5601H70.8308C69.5931 86.9685 60.5907 78.7495 49.6667 78.7495C38.7428 78.7495 29.7404 86.9685 28.5027 97.5601H20.8308C19.6889 87.7885 11.9383 80.0368 2.16675 78.895V71.2241C12.7583 69.9864 20.9773 60.984 20.9773 50.0601C20.9773 39.1361 12.7584 30.1327 2.16675 28.895V21.2241C11.9383 20.0823 19.6889 12.3316 20.8308 2.56006H28.5027ZM49.6667 28.7495C37.897 28.7495 28.3562 38.2903 28.3562 50.0601C28.3562 61.8298 37.897 71.3706 49.6667 71.3706C61.4365 71.3706 70.9773 61.8298 70.9773 50.0601C70.9773 38.2903 61.4365 28.7495 49.6667 28.7495Z" fill="#0D0065" stroke="#0D0065" stroke-width="5"/>
</g>
<defs>
<clipPath id="clip0_1569_2928">
<rect width="100" height="100" fill="white"/>
</clipPath>
</defs>
</svg>
