<svg width="150" height="171" viewBox="0 0 150 171" fill="none" xmlns="http://www.w3.org/2000/svg">
<mask id="mask0_1569_3497" style="mask-type:luminance" maskUnits="userSpaceOnUse" x="0" y="17" width="150" height="137">
<path d="M0 17.4702H150V153.53H0V17.4702Z" fill="white"/>
</mask>
<g mask="url(#mask0_1569_3497)">
<path fill-rule="evenodd" clip-rule="evenodd" d="M130.986 95.1863H110.778C109.611 113.923 93.9951 128.814 74.9548 128.814C55.9333 128.814 40.318 113.923 39.1312 95.1863H18.9421V99.11L29.6589 102.593C30.4051 102.842 30.9602 103.435 31.1705 104.201C32.2231 108.316 33.8497 112.24 36.0122 115.914C36.4139 116.584 36.4332 117.407 36.0883 118.096L30.9598 128.144L39.7244 136.929L49.7903 131.799C50.4792 131.435 51.3019 131.474 51.9716 131.857C55.6269 134.038 59.569 135.665 63.6833 136.718C64.4295 136.909 65.0419 137.483 65.2714 138.211L68.7545 148.948H81.1547L84.6378 138.211C84.8865 137.483 85.4797 136.909 86.2451 136.718C90.3402 135.665 94.2823 134.038 97.9376 131.857C98.6073 131.474 99.43 131.435 100.138 131.799L110.185 136.929L118.949 128.144L113.84 118.096C113.476 117.407 113.496 116.584 113.897 115.914C116.06 112.24 117.705 108.297 118.758 104.201C118.949 103.435 119.523 102.842 120.251 102.593L130.986 99.11V95.1863ZM21.1238 73.6931V90.6503H46.9581V78.8224C46.9581 73.138 48.6423 67.8557 51.5698 63.4346C48.3547 59.2049 43.4177 56.7168 38.079 56.7168C28.7212 56.7168 21.1238 64.3342 21.1238 73.6931ZM38.079 52.1807C42.8822 52.1807 46.8051 48.2767 46.8051 43.4726C46.8051 38.6494 42.8818 34.7453 38.079 34.7453C33.2757 34.7453 29.3529 38.6494 29.3529 43.4726C29.3525 48.2767 33.2757 52.1807 38.079 52.1807ZM51.4933 78.8224C51.4933 65.8847 62.0187 55.3582 74.9548 55.3582C87.8913 55.3582 98.4162 65.8847 98.4162 78.8224V90.6503H51.4933V78.8224ZM74.9548 50.8029C81.8244 50.8029 87.3935 45.2334 87.3935 38.3626C87.3935 31.5106 81.8244 25.9411 74.9548 25.9411C68.104 25.9411 62.5161 31.5106 62.5161 38.3626C62.5161 45.2334 68.104 50.8029 74.9548 50.8029ZM43.6857 95.1863H106.223C105.056 111.416 91.4885 124.278 74.9548 124.278C58.4399 124.278 44.8528 111.416 43.6857 95.1863ZM98.3586 63.4346C101.267 67.8557 102.97 73.138 102.97 78.8224V90.6503H128.805V73.6931C128.805 64.3342 121.188 56.7168 111.831 56.7168C106.511 56.7168 101.573 59.2045 98.3586 63.4346ZM111.831 52.1807C116.653 52.1807 120.557 48.2767 120.557 43.4726C120.557 38.6494 116.653 34.7453 111.831 34.7453C107.027 34.7453 103.124 38.6494 103.124 43.4726C103.124 48.2767 107.027 52.1807 111.831 52.1807ZM149.893 92.9089C149.893 94.1718 148.879 95.1859 147.635 95.1859H135.522V100.775C135.522 101.751 134.89 102.631 133.952 102.938L122.834 106.536C121.782 110.229 120.308 113.77 118.433 117.139L123.753 127.55C124.193 128.43 124.021 129.502 123.332 130.191L112.232 141.292C111.543 142 110.472 142.153 109.592 141.713L99.1624 136.392C95.8135 138.268 92.2732 139.742 88.5802 140.794L84.9634 151.914C84.657 152.852 83.7962 153.484 82.8009 153.484H67.1091C66.133 153.484 65.253 152.852 64.9466 151.914L61.3297 140.794C57.6556 139.742 54.0964 138.268 50.7475 136.392L40.3184 141.713C39.438 142.153 38.3854 142 37.6776 141.292L26.5784 130.191C25.889 129.502 25.7172 128.43 26.157 127.55L31.4769 117.139C29.6016 113.77 28.128 110.229 27.0946 106.536L15.9577 102.938C15.0201 102.631 14.3884 101.751 14.3884 100.775V95.1859H2.27458C1.03052 95.1859 0.0163574 94.1718 0.0163574 92.9089C0.0163574 91.6644 1.03092 90.6503 2.27458 90.6503H16.5693V73.6931C16.5693 64.7552 22.0615 57.0805 29.8311 53.8265C26.769 51.396 24.8172 47.6642 24.8172 43.4726C24.8172 36.1612 30.7688 30.2093 38.0786 30.2093C45.3888 30.2093 51.3399 36.1616 51.3399 43.4726C51.3399 47.6642 49.3881 51.396 46.326 53.8265C49.4454 55.1283 52.2203 57.1377 54.4401 59.7789C57.4633 56.5257 61.2332 53.9799 65.4817 52.4487C60.9656 49.4058 57.9804 44.2192 57.9804 38.3626C57.9804 29.0036 65.5966 21.3862 74.9544 21.3862C84.3121 21.3862 91.9283 29.0036 91.9283 38.3626C91.9283 44.2192 88.9431 49.4058 84.4267 52.4487C88.6748 53.9799 92.4642 56.5253 95.4687 59.7789C97.6889 57.1377 100.483 55.1283 103.582 53.8265C100.539 51.396 98.5881 47.6642 98.5881 43.4726C98.5881 36.1612 104.52 30.2093 111.83 30.2093C119.141 30.2093 125.092 36.1616 125.092 43.4726C125.092 47.6642 123.14 51.396 120.097 53.8265C127.867 57.0805 133.34 64.7552 133.34 73.6931V90.6503H147.635C148.879 90.6503 149.893 91.6644 149.893 92.9089ZM64.2765 110.555C63.3961 109.675 63.3961 108.22 64.2765 107.339C65.1757 106.459 66.6112 106.459 67.4916 107.339L72.3329 112.182L85.422 98.1908C86.2836 97.2719 87.7187 97.2143 88.6371 98.0758C89.5363 98.9177 89.594 100.372 88.7328 101.272L74.0552 117.004C73.1832 117.947 71.7169 117.975 70.7828 117.062L64.2765 110.555Z" fill="#0D0065"/>
</g>
</svg>
