<svg width="342" height="72" viewBox="0 0 342 72" fill="none" xmlns="http://www.w3.org/2000/svg">
<path d="M0.986113 16.157C0.807774 16.2408 0.524528 16.4816 0.356679 16.7014L0.0524528 17.0887V27.2013V37.3138L1.668 37.3661L3.29404 37.4185L1.80438 38.8213C0.797283 39.7843 0.272755 40.3601 0.157358 40.6323C0.0209811 40.9778 0 42.0351 0 48.515V56H3.09472H6.18943V49.6352L6.19992 43.2808L13.5433 35.8482C17.5822 31.755 20.9811 28.269 21.086 28.1015C21.2854 27.8084 21.2958 27.5886 21.2958 24.5423C21.2854 22.0926 21.2539 21.2342 21.149 21.0563C20.9182 20.6271 16.5331 16.3036 16.1869 16.157C15.6939 15.9477 1.47917 15.9477 0.986113 16.157ZM15.1064 23.7781V25.3693L13.921 26.5731C13.2706 27.2431 11.2669 29.295 9.46249 31.1269L6.18943 34.4664V28.3319V22.1869H10.6479H15.1064V23.7781Z" fill="#0D0065"/>
<path d="M28.4818 16.157C28.0412 16.3559 23.6037 20.7946 23.4358 21.2133C23.3204 21.4855 23.289 22.6998 23.289 27.2117V32.8647H25.3556H27.4118L25.471 34.8328C23.9184 36.403 23.4988 36.8846 23.4044 37.2196C23.2575 37.743 23.247 50.033 23.3939 50.5459C23.5093 50.9751 27.8209 55.4033 28.4608 55.7592L28.8804 56H36.7379H44.5848V52.8595V49.7189H37.0841H29.5833V44.38V39.0411H31.7653H33.9369L37.0841 35.9948C38.815 34.3198 40.2522 32.9066 40.2627 32.8542C40.2837 32.8019 37.9548 32.76 34.944 32.76H29.5833V27.4734V22.1869H37.0841H44.5848V19.0987V16.0105H36.6959C30.3071 16.0209 28.7336 16.0419 28.4818 16.157Z" fill="#0D0065"/>
<path d="M44.8997 19.0987V22.1869H50.7429H56.5861L54.6874 24.0084C53.0718 25.5786 52.7781 25.9032 52.6732 26.2905C52.5788 26.6255 52.5578 30.3941 52.5788 41.3441L52.6102 55.9477L55.6735 55.9791L58.7472 56L58.7682 39.1248L58.7997 22.2392L62.6077 22.2078L66.4053 22.1869V19.0987V16.0105H55.6525H44.8997V19.0987Z" fill="#0D0065"/>
<path d="M69.2167 16.2198C69.0069 16.335 68.7446 16.5862 68.6187 16.7747C68.3984 17.1306 68.3984 17.162 68.3984 27.2536V37.3661H69.993H71.5981L70.0245 38.9364L68.4509 40.5067L68.4194 48.2533L68.3984 56L71.4617 55.9791L74.5354 55.9477L74.5669 49.5619L74.5879 43.1761L76.3818 41.3965L78.1652 39.6169L80.8298 42.3387L83.4944 45.0605L83.5049 50.525V56H86.5996H89.6943V49.4781C89.6943 45.1023 89.6523 42.8307 89.5789 42.548C89.4845 42.1921 88.897 41.564 86.0016 38.6538L82.5292 35.1782L85.9806 31.6713C88.1732 29.4415 89.474 28.0387 89.5579 27.8189C89.6418 27.5781 89.6838 26.5313 89.6838 24.5109C89.6943 22.0822 89.6628 21.4855 89.5369 21.1714C89.3376 20.7003 84.9735 16.3769 84.4805 16.157C84.1972 16.0314 82.9069 16.0105 76.8748 16.0105C69.8986 16.0209 69.5944 16.0314 69.2167 16.2198ZM83.5049 23.7571V25.3169L79.0883 29.8288C76.6545 32.2994 74.6508 34.3303 74.6298 34.3303C74.6089 34.3303 74.5879 31.598 74.5879 28.2586V22.1869H79.0464H83.5049V23.7571Z" fill="#0D0065"/>
<path d="M98.4541 16.1361C98.0869 16.3455 93.5655 20.7527 93.4081 21.0458C93.2822 21.297 93.2612 22.8464 93.2612 30.9804C93.2612 39.6064 93.2822 40.6532 93.4291 40.9568C93.5235 41.1452 94.4572 42.1502 95.4957 43.1971L97.405 45.1128H95.3279H93.2612V50.5564V56H96.3559H99.4507L99.4716 50.5773L99.5031 45.1651L103.941 45.1337L108.368 45.1128V50.5564V56L111.494 55.9791L114.61 55.9477L114.641 38.8422C114.651 27.9236 114.631 21.6006 114.557 21.3599C114.484 21.0667 113.949 20.47 112.144 18.6799C110.885 17.4132 109.689 16.2931 109.501 16.1884C109.186 16.0209 108.714 16.0105 103.909 16.0105C100.195 16.0209 98.6009 16.0523 98.4541 16.1361ZM108.368 30.5093V38.8317H103.909H99.4507V30.5826C99.4507 26.0393 99.4821 22.2915 99.5241 22.2601C99.5556 22.2183 101.57 22.1869 103.983 22.1869H108.368V30.5093Z" fill="#0D0065"/>
<path d="M122.058 16.178C121.89 16.2617 120.883 17.162 119.844 18.1879C117.62 20.3444 117.652 20.2921 117.725 22.1136C117.767 23.0243 117.809 23.2965 117.987 23.5268C118.092 23.6838 118.984 24.469 119.949 25.2751L121.712 26.7406L119.739 26.793L117.757 26.8453L117.725 27.7875C117.704 28.3004 117.746 28.9809 117.809 29.274C117.924 29.8184 118.019 29.9126 125.373 37.3871L132.811 44.9453V47.2588V49.5828L130.429 49.6352C129.107 49.6666 127.114 49.6875 125.992 49.677L123.946 49.6666L123.894 46.8192L123.841 43.9717L120.778 46.4423L117.704 48.9024V49.4991C117.704 50.6925 117.715 50.703 120.358 53.3619C122.205 55.2044 122.876 55.822 123.159 55.8953C123.38 55.9581 125.719 56 128.877 56C133.87 56 134.258 55.9791 134.646 55.8011C135.15 55.5603 138.727 52.001 138.885 51.5718C138.958 51.3834 139 49.7817 139 47.0076C139 42.7783 139 42.7365 138.769 42.3072C138.633 42.0769 135.234 38.5595 131.206 34.4873L123.894 27.0861L123.915 24.6574L123.946 22.2392L128.363 22.2078L132.779 22.1869L132.842 22.6789C132.874 22.9615 132.884 24.3015 132.874 25.6624C132.863 27.0338 132.863 28.1539 132.884 28.1539C132.915 28.1539 134.3 26.9919 135.968 25.5577L139 22.972V22.2078C139 21.7891 138.937 21.297 138.853 21.1086C138.685 20.7108 134.437 16.4606 133.944 16.1884C133.629 16.0209 133.136 16.0105 127.985 16.0105C123.191 16.0105 122.33 16.0419 122.058 16.178Z" fill="#0D0065"/>
<line x1="155.5" y1="15" x2="155.5" y2="57" stroke="#0D0065"/>
<mask id="mask0_3517_633" style="mask-type:luminance" maskUnits="userSpaceOnUse" x="171" y="15" width="41" height="42">
<path d="M191.011 56.011C179.959 56.011 171 47.0518 171 36C171 24.9482 179.959 15.989 191.011 15.989C202.063 15.989 211.022 24.9482 211.022 36C211.022 47.0518 202.063 56.011 191.011 56.011Z" fill="white"/>
</mask>
<g mask="url(#mask0_3517_633)">
<path d="M208.532 56.7066C205.86 53.5915 203.068 50.5067 199.671 48.1679C197.957 46.9783 196.092 46.0206 194.106 45.3553C192.009 44.6597 189.811 44.2867 187.614 44.1153C182.996 43.7624 178.389 44.3068 173.782 44.6193C169.367 44.9218 164.871 45.0226 160.556 43.9338C156.957 43.0265 153.459 41.3026 150.949 38.5102C150.636 38.1674 150.344 37.8045 150.071 37.4315C149.991 37.3206 150.465 37.2198 150.555 37.3408C152.834 40.4256 156.251 42.4116 159.89 43.4902C164.185 44.7705 168.701 44.7403 173.137 44.458C177.734 44.1657 182.331 43.6011 186.948 43.8532C191.192 44.085 195.356 45.0629 199.005 47.311C202.483 49.4482 205.356 52.412 208.018 55.4666C208.35 55.8497 208.683 56.2328 209.006 56.6159C209.096 56.7167 208.633 56.8175 208.532 56.7066Z" fill="#0D0065"/>
</g>
<mask id="mask1_3517_633" style="mask-type:luminance" maskUnits="userSpaceOnUse" x="171" y="15" width="41" height="42">
<path d="M191.011 56.011C179.959 56.011 171 47.0518 171 36C171 24.9482 179.959 15.989 191.011 15.989C202.063 15.989 211.022 24.9482 211.022 36C211.022 47.0518 202.063 56.011 191.011 56.011Z" fill="white"/>
</mask>
<g mask="url(#mask1_3517_633)">
<path d="M210.952 50.5773C209.288 47.2102 206.909 44.2061 204.036 41.7967C201.173 39.3974 197.806 37.5626 194.187 36.6351C192.211 36.121 190.184 35.8891 188.148 35.9194C185.678 35.9597 183.239 36.3327 180.819 36.7964C176.081 37.7239 171.363 39.0445 166.494 39.0445C162.532 39.0546 158.399 38.0868 155.253 35.5665C154.87 35.254 154.507 34.9214 154.155 34.5786C153.953 34.377 154.417 34.3467 154.548 34.4677C157.411 37.3811 161.534 38.6211 165.536 38.7522C170.486 38.9135 175.315 37.5727 180.124 36.615C184.539 35.7379 189.055 35.1935 193.501 36.1916C197.12 36.9981 200.518 38.6715 203.461 40.9196C206.415 43.1879 208.925 46.061 210.75 49.3071C210.982 49.7103 211.193 50.1237 211.405 50.537C211.506 50.7487 211.022 50.7285 210.952 50.5773Z" fill="#0D0065"/>
</g>
<mask id="mask2_3517_633" style="mask-type:luminance" maskUnits="userSpaceOnUse" x="171" y="15" width="41" height="42">
<path d="M191.011 56.011C179.959 56.011 171 47.0518 171 36C171 24.9482 179.959 15.989 191.011 15.989C202.063 15.989 211.022 24.9482 211.022 36C211.022 47.0518 202.063 56.011 191.011 56.011Z" fill="white"/>
</mask>
<g mask="url(#mask2_3517_633)">
<path d="M212.313 43.9238C211.365 40.3047 210.014 36.6452 207.343 33.9334C206.143 32.7136 204.711 31.7257 203.098 31.151C201.233 30.4857 199.207 30.405 197.241 30.6067C193.199 31.02 189.398 32.6531 185.356 33.1068C183.249 33.3487 181.111 33.2781 179.005 33.1068C176.978 32.9455 174.942 32.7237 172.946 32.3003C169.448 31.5644 165.96 30.1127 163.54 27.3908C163.268 27.0783 163.006 26.7557 162.764 26.423C162.623 26.2214 163.006 25.9089 163.167 26.1407C165.304 29.1046 168.752 30.7982 172.23 31.6551C174.196 32.139 176.212 32.391 178.218 32.5725C180.355 32.7741 182.513 32.9051 184.66 32.7338C188.773 32.4011 192.614 30.768 196.687 30.2337C198.602 29.9816 200.568 29.9715 202.443 30.4655C204.127 30.899 205.659 31.766 206.959 32.9051C209.772 35.3649 211.335 38.8631 212.363 42.3814C212.494 42.835 212.625 43.2988 212.746 43.7625C212.817 43.9843 212.393 44.2162 212.313 43.9238Z" fill="#0D0065"/>
</g>
<mask id="mask3_3517_633" style="mask-type:luminance" maskUnits="userSpaceOnUse" x="171" y="15" width="41" height="42">
<path d="M191.011 56.011C179.959 56.011 171 47.0518 171 36C171 24.9482 179.959 15.989 191.011 15.989C202.063 15.989 211.022 24.9482 211.022 36C211.022 47.0518 202.063 56.011 191.011 56.011Z" fill="white"/>
</mask>
<g mask="url(#mask3_3517_633)">
<path d="M213.834 32.4313C211.496 29.7699 208.975 27.2194 205.981 25.3039C202.987 23.3885 199.449 22.1385 195.86 22.3099C194.025 22.4006 192.301 22.9248 190.628 23.6607C188.985 24.3866 187.392 25.2435 185.678 25.808C182.845 26.7455 179.76 26.7859 176.877 26.06C174.004 25.3342 171.302 23.8422 169.246 21.6949C168.984 21.4227 168.742 21.1404 168.5 20.8582C168.369 20.6969 168.722 20.334 168.842 20.4852C170.758 22.8038 173.359 24.4874 176.222 25.3846C179.085 26.2818 182.2 26.4129 185.093 25.6064C186.817 25.1326 188.4 24.3059 190.013 23.5599C191.626 22.8139 193.279 22.1788 195.063 21.9671C198.582 21.5336 202.171 22.5417 205.215 24.2656C208.32 26.0197 210.921 28.4694 213.29 31.0703C213.593 31.403 213.885 31.7256 214.177 32.0583C214.318 32.2196 213.966 32.5825 213.834 32.4313Z" fill="#0D0065"/>
</g>
<mask id="mask4_3517_633" style="mask-type:luminance" maskUnits="userSpaceOnUse" x="171" y="15" width="41" height="42">
<path d="M191.011 56.011C179.959 56.011 171 47.0518 171 36C171 24.9482 179.959 15.989 191.011 15.989C202.063 15.989 211.022 24.9482 211.022 36C211.022 47.0518 202.063 56.011 191.011 56.011Z" fill="white"/>
</mask>
<g mask="url(#mask4_3517_633)">
<path d="M204.56 18.1968C202.685 16.8862 200.527 16.0193 198.269 15.616C196.011 15.2128 193.662 15.2934 191.434 15.858C189.055 16.4628 186.968 17.7431 184.75 18.7512C183.652 19.2553 182.502 19.6888 181.313 19.9106C180.093 20.1324 178.843 20.1223 177.623 19.9307C175.123 19.5376 172.774 18.4286 170.657 17.0879C170.385 16.9165 170.123 16.7451 169.861 16.5636C169.81 16.5334 169.679 16.4326 169.76 16.3721C169.83 16.3116 170.012 16.4023 170.072 16.4427C172.159 17.854 174.458 19.0537 176.948 19.5577C178.178 19.7997 179.438 19.8602 180.678 19.6686C181.897 19.4771 183.057 19.0638 184.186 18.5597C186.394 17.5617 188.48 16.2814 190.829 15.6362C193.037 15.0313 195.376 14.9204 197.634 15.2531C199.902 15.5858 202.11 16.3822 204.056 17.5919C204.298 17.7431 204.54 17.9044 204.772 18.0657C204.822 18.096 204.953 18.1968 204.872 18.2573C204.802 18.3278 204.62 18.2371 204.56 18.1968Z" fill="#0D0065"/>
</g>
<mask id="mask5_3517_633" style="mask-type:luminance" maskUnits="userSpaceOnUse" x="171" y="15" width="41" height="42">
<path d="M191.011 56.011C179.959 56.011 171 47.0518 171 36C171 24.9482 179.959 15.989 191.011 15.989C202.063 15.989 211.022 24.9482 211.022 36C211.022 47.0518 202.063 56.011 191.011 56.011Z" fill="white"/>
</mask>
<g mask="url(#mask5_3517_633)">
<path d="M197.997 58.6221C196.717 56.3236 195.064 54.2166 193.128 52.4323C192.211 51.5855 191.193 50.789 190.013 50.3354C188.672 49.8213 187.241 49.9221 185.86 50.164C183.027 50.6681 180.265 51.5149 177.422 51.9887C174.952 52.402 172.412 52.5129 169.962 51.9282C167.804 51.4141 165.718 50.3858 164.236 48.6922C164.054 48.4805 163.883 48.2688 163.722 48.0369C163.53 47.7748 163.953 47.553 164.125 47.7849C165.425 49.5995 167.411 50.7689 169.538 51.3536C171.938 52.0189 174.428 51.9786 176.877 51.6056C179.74 51.1721 182.513 50.3354 185.346 49.791C186.747 49.5188 188.209 49.3273 189.61 49.7204C190.84 50.0632 191.918 50.7689 192.886 51.5754C194.892 53.2791 196.606 55.3558 197.967 57.5938C198.139 57.8761 198.3 58.1583 198.461 58.4507C198.522 58.5616 198.431 58.7027 198.32 58.733C198.189 58.8035 198.058 58.733 197.997 58.6221Z" fill="#0D0065"/>
</g>
<mask id="mask6_3517_633" style="mask-type:luminance" maskUnits="userSpaceOnUse" x="171" y="15" width="41" height="42">
<path d="M191.011 56.011C179.959 56.011 171 47.0518 171 36C171 24.9482 179.959 15.989 191.011 15.989C202.063 15.989 211.022 24.9482 211.022 36C211.022 47.0518 202.063 56.011 191.011 56.011Z" fill="white"/>
</mask>
<g mask="url(#mask6_3517_633)">
<path d="M206.062 43.329C204.6 44.8613 202.856 46.1114 200.921 46.9884C200.376 47.2404 199.812 47.4622 199.247 47.6538C199.126 47.6941 199.005 47.6235 199.046 47.4824C199.872 45.0024 200.507 42.2301 199.368 39.7401C199.096 39.1352 198.703 38.5808 198.229 38.1271C198.37 38.0465 198.511 37.9759 198.642 37.8953C198.219 40.1937 196.989 42.2906 195.225 43.8229C194.731 44.2564 194.187 44.6294 193.612 44.9621C193.551 45.0024 193.36 45.0428 193.35 44.9117C193.178 43.5003 193.037 42.0789 192.795 40.6776C192.614 39.5687 192.342 38.4195 191.767 37.4416C191.455 36.9073 191.051 36.4335 190.547 36.0706C190.678 35.9798 190.799 35.8992 190.93 35.8085C190.759 38.2179 191.324 40.849 189.932 43.0165C189.61 43.5205 189.186 43.954 188.692 44.2867C188.612 44.3371 188.471 44.3472 188.43 44.2363C187.583 41.9579 186.696 39.609 185.083 37.744C184.64 37.2299 184.136 36.7662 183.591 36.3629C183.722 36.2722 183.843 36.1915 183.974 36.1008C184.015 38.1977 184.045 40.3853 183.289 42.3713C183.077 42.9257 182.805 43.4499 182.472 43.9338C182.402 44.0347 182.14 44.2262 182.069 44.0246C181.202 41.5345 179.992 39.1756 178.47 37.0182C178.601 36.9577 178.742 36.8972 178.873 36.8367C178.389 38.9034 177.895 40.9902 176.968 42.9056C176.706 43.4499 176.403 43.9742 176.071 44.4782C176.01 44.5689 175.718 44.7807 175.668 44.5689C175.264 42.7745 174.831 40.8994 173.742 39.3873C173.44 38.9639 173.077 38.5808 172.673 38.2582C172.805 38.1674 172.925 38.0868 173.057 37.9961C173.127 40.597 172.492 43.1979 171.242 45.4762C171.192 45.5771 171.05 45.6678 170.94 45.6476C170.819 45.6275 170.819 45.5065 170.869 45.4158C172.089 43.1979 172.684 40.6676 172.613 38.1372C172.613 38.0061 172.865 37.7743 172.996 37.8751C174.498 39.0747 175.234 40.9095 175.718 42.714C175.859 43.2483 175.98 43.7826 176.101 44.327C175.97 44.3572 175.829 44.3875 175.698 44.4177C176.877 42.6737 177.522 40.6474 178.027 38.6211C178.178 38.0364 178.309 37.4618 178.45 36.8771C178.48 36.7561 178.752 36.5444 178.853 36.6956C180.385 38.8731 181.605 41.2623 182.482 43.7826C182.351 43.8129 182.21 43.8431 182.079 43.8734C183.259 42.1596 183.501 40.0526 183.531 38.0263C183.541 37.4315 183.531 36.8367 183.521 36.242C183.521 36.1008 183.773 35.8891 183.904 35.9798C185.94 37.4517 187.15 39.7199 188.087 41.9983C188.36 42.6535 188.612 43.3189 188.854 43.9842C188.763 43.9641 188.682 43.954 188.592 43.9338C189.408 43.3995 189.892 42.4922 190.154 41.5849C190.477 40.4659 190.467 39.2764 190.457 38.117C190.446 37.3912 190.436 36.6654 190.487 35.9395C190.497 35.8085 190.729 35.5766 190.87 35.6774C192.866 37.1089 193.168 39.8107 193.461 42.0688C193.572 42.9257 193.672 43.7927 193.773 44.6496C193.682 44.6294 193.602 44.6194 193.511 44.5992C195.386 43.5306 196.868 41.7966 197.675 39.7905C197.906 39.2159 198.078 38.6211 198.199 38.0061C198.229 37.8549 198.461 37.6231 198.612 37.7743C199.489 38.6211 200.023 39.7603 200.265 40.9498C200.538 42.3007 200.427 43.6717 200.134 45.0125C199.963 45.8291 199.721 46.6255 199.459 47.4118C199.388 47.3513 199.328 47.3009 199.257 47.2404C201.173 46.6053 202.957 45.5972 204.51 44.2968C204.943 43.9338 205.356 43.5407 205.75 43.1274C205.82 43.0568 205.961 42.9661 206.062 43.0265C206.173 43.1173 206.123 43.2584 206.062 43.329Z" fill="#0D0065"/>
</g>
<mask id="mask7_3517_633" style="mask-type:luminance" maskUnits="userSpaceOnUse" x="171" y="15" width="41" height="42">
<path d="M191.011 56.011C179.959 56.011 171 47.0518 171 36C171 24.9482 179.959 15.989 191.011 15.989C202.063 15.989 211.022 24.9482 211.022 36C211.022 47.0518 202.063 56.011 191.011 56.011Z" fill="white"/>
</mask>
<g mask="url(#mask7_3517_633)">
<path d="M206.173 43.2886C205.83 45.4056 204.943 47.3815 203.945 49.2667C203.663 49.801 203.36 50.3353 203.068 50.8696C202.997 50.7688 202.927 50.668 202.856 50.5571C204.741 49.6498 206.637 48.7828 208.552 47.9461C208.844 47.8251 208.855 48.2888 208.623 48.3896C206.707 49.2264 204.802 50.0934 202.927 51.0007C202.725 51.1015 202.635 50.8394 202.715 50.6881C203.723 48.8836 204.741 47.0489 205.346 45.0629C205.518 44.5084 205.659 43.9338 205.75 43.3592C205.77 43.2382 205.84 43.1071 205.971 43.087C206.102 43.0668 206.193 43.1777 206.173 43.2886Z" fill="#0D0065"/>
</g>
<mask id="mask8_3517_633" style="mask-type:luminance" maskUnits="userSpaceOnUse" x="171" y="15" width="41" height="42">
<path d="M191.011 56.011C179.959 56.011 171 47.0518 171 36C171 24.9482 179.959 15.989 191.011 15.989C202.063 15.989 211.022 24.9482 211.022 36C211.022 47.0518 202.063 56.011 191.011 56.011Z" fill="white"/>
</mask>
<g mask="url(#mask8_3517_633)">
<path d="M195.84 55.1844C197.241 53.6218 198.673 52.029 199.6 50.1237C199.862 49.5894 200.074 49.0349 200.225 48.4603C200.366 48.4906 200.507 48.5309 200.649 48.5611C198.542 49.0652 196.525 49.9422 194.731 51.152C194.217 51.4947 193.733 51.8677 193.259 52.2609C193.189 52.3214 193.068 52.3214 192.977 52.3113C192.926 52.3012 192.755 52.281 192.765 52.2004C193.037 50.3959 193.32 48.5914 193.592 46.7868C193.672 46.2727 193.753 45.7586 193.824 45.2444C193.985 45.2646 194.156 45.2848 194.318 45.3049C192.967 46.434 191.727 47.6841 190.618 49.0551C190.305 49.4483 189.993 49.8414 189.7 50.2447C189.63 50.3455 189.227 50.3253 189.206 50.1842C189.106 49.2769 188.995 48.3696 188.864 47.4623C188.753 46.676 188.672 45.8594 188.4 45.1134C188.259 44.7202 188.067 44.3573 187.785 44.0448C187.946 44.0448 188.118 44.0549 188.279 44.0549C187.654 45.5569 187.1 47.0792 186.616 48.6317C186.474 49.0753 186.343 49.5087 186.222 49.9523C186.182 50.0934 185.789 50.0531 185.728 49.9422C184.892 48.42 184.176 46.8272 183.49 45.2344C183.299 44.7807 183.097 44.3271 182.906 43.8734C183.067 43.8734 183.238 43.8835 183.4 43.8835C182.896 45.7384 182.402 47.5832 181.898 49.4382C181.757 49.9624 181.615 50.4866 181.474 51.0108C181.434 51.152 181.031 51.1116 180.98 51.0007C180.093 49.1962 179.146 47.422 178.148 45.6779C177.865 45.1839 177.583 44.7001 177.291 44.2061C177.452 44.2061 177.623 44.2162 177.785 44.2162C177.553 46.0308 177.281 47.8353 176.968 49.6398C176.877 50.1539 176.787 50.6681 176.686 51.1822C176.655 51.3334 176.162 51.2729 176.182 51.1419C176.524 49.3474 176.817 47.5429 177.079 45.7283C177.149 45.2142 177.22 44.7001 177.291 44.1758C177.311 44.0246 177.734 44.0952 177.785 44.1859C178.813 45.9098 179.791 47.6639 180.708 49.4483C180.97 49.9523 181.222 50.4564 181.474 50.9705C181.313 50.9705 181.142 50.9604 180.98 50.9604C181.484 49.1055 181.978 47.2607 182.482 45.4057C182.624 44.8815 182.765 44.3573 182.906 43.8331C182.946 43.6919 183.349 43.7323 183.4 43.8432C184.085 45.4461 184.761 47.0389 185.537 48.5914C185.759 49.0349 185.981 49.4684 186.222 49.9019C186.061 49.9019 185.89 49.8918 185.728 49.8918C186.172 48.3293 186.696 46.7868 187.271 45.2747C187.432 44.8412 187.604 44.4178 187.785 43.9944C187.846 43.8432 188.198 43.9137 188.279 44.0045C188.783 44.5589 189.005 45.2948 189.136 46.0207C189.297 46.8877 189.408 47.7647 189.519 48.6317C189.59 49.1559 189.65 49.6801 189.711 50.2043C189.549 50.1842 189.378 50.164 189.217 50.1438C190.255 48.7224 191.424 47.4018 192.705 46.2021C193.068 45.8594 193.451 45.5267 193.834 45.2041C193.904 45.1436 194.025 45.1436 194.116 45.1537C194.166 45.1638 194.338 45.1839 194.328 45.2646C194.055 47.0691 193.773 48.8736 193.501 50.6782C193.42 51.1923 193.34 51.7064 193.269 52.2206C193.108 52.2004 192.936 52.1802 192.775 52.1601C194.469 50.7386 196.414 49.6398 198.501 48.9039C199.096 48.6922 199.691 48.5208 200.306 48.3797C200.397 48.3595 200.487 48.3595 200.578 48.3797C200.608 48.3897 200.739 48.42 200.729 48.4805C200.165 50.537 198.884 52.3012 197.513 53.9041C197.12 54.3678 196.717 54.8114 196.314 55.2651C196.243 55.3457 196.092 55.3255 196.001 55.3155C195.961 55.3155 195.769 55.255 195.84 55.1844Z" fill="#0D0065"/>
</g>
<mask id="mask9_3517_633" style="mask-type:luminance" maskUnits="userSpaceOnUse" x="171" y="15" width="41" height="42">
<path d="M191.011 56.011C179.959 56.011 171 47.0518 171 36C171 24.9482 179.959 15.989 191.011 15.989C202.063 15.989 211.022 24.9482 211.022 36C211.022 47.0518 202.063 56.011 191.011 56.011Z" fill="white"/>
</mask>
<g mask="url(#mask9_3517_633)">
<path d="M196.314 55.1138C198.592 55.0029 200.87 54.9727 203.149 55.0231C203.794 55.0432 204.439 55.0634 205.074 55.0936C205.185 55.0936 205.034 55.1844 205.014 55.1945C204.913 55.2449 204.792 55.2852 204.681 55.2751C202.423 55.1743 200.165 55.1541 197.906 55.2146C197.271 55.2348 196.636 55.2549 196.001 55.2953C195.91 55.2953 195.9 55.265 195.981 55.2146C196.072 55.1642 196.203 55.1138 196.314 55.1138Z" fill="#0D0065"/>
</g>
<mask id="mask10_3517_633" style="mask-type:luminance" maskUnits="userSpaceOnUse" x="171" y="15" width="41" height="42">
<path d="M191.011 56.011C179.959 56.011 171 47.0518 171 36C171 24.9482 179.959 15.989 191.011 15.989C202.063 15.989 211.022 24.9482 211.022 36C211.022 47.0518 202.063 56.011 191.011 56.011Z" fill="white"/>
</mask>
<g mask="url(#mask10_3517_633)">
<path d="M211.002 38.5707C209.127 39.9821 207.746 41.968 207.05 44.196C206.979 44.4178 206.576 44.3472 206.556 44.1254C206.334 41.0204 206.102 37.9154 205.881 34.8105C205.82 33.9233 205.75 33.0261 205.689 32.139C205.85 32.1591 206.022 32.1894 206.183 32.2095C204.842 34.7701 203.501 37.3307 202.171 39.8913C202.09 40.0526 201.737 40.0829 201.687 39.8712C200.941 36.6956 200.195 33.5302 199.449 30.3546C199.61 30.3647 199.771 30.3647 199.933 30.3748C198.783 32.6229 197.765 34.9415 196.868 37.3005C196.798 37.492 196.455 37.4618 196.384 37.2803C195.588 35.1633 194.63 33.1068 193.511 31.1409C193.672 31.1107 193.824 31.0905 193.985 31.0603C193.733 32.7136 193.471 34.3669 193.219 36.0202C193.178 36.2521 192.876 36.2319 192.745 36.1008C191.596 34.8508 190.446 33.6108 189.297 32.3608C189.448 32.3507 189.61 32.3406 189.761 32.3305C189.428 33.4898 189.096 34.6592 188.773 35.8186C188.723 36 188.4 35.9799 188.309 35.8488C187.614 34.8004 186.767 33.8528 185.799 33.0463C185.94 33.0261 186.081 32.9959 186.222 32.9757C185.89 33.9838 185.567 34.9818 185.234 35.99C185.174 36.1613 184.861 36.1613 184.771 36.0202C184.146 34.9818 183.369 34.0443 182.472 33.2378C182.613 33.1975 182.765 33.1572 182.906 33.1168C182.684 34.2762 182.321 35.4052 181.807 36.4738C181.726 36.6351 181.444 36.6452 181.343 36.5041C180.466 35.254 179.478 34.0947 178.379 33.0463C178.52 33.0261 178.662 32.9959 178.803 32.9757C178.359 34.4375 177.906 35.8992 177.462 37.3711C177.401 37.5828 177.049 37.5223 176.978 37.3509C176.252 35.627 175.295 34.004 174.135 32.5321C174.286 32.5221 174.448 32.512 174.599 32.5019C174.044 34.3467 173.5 36.1916 172.946 38.0364C172.885 38.2481 172.532 38.1776 172.462 38.0163C171.625 36.2621 170.788 34.508 169.941 32.7438C169.831 32.5019 170.325 32.4414 170.435 32.6632C171.272 34.4173 172.109 36.1714 172.956 37.9356C172.794 37.9255 172.633 37.9255 172.472 37.9154C173.026 36.0706 173.571 34.2258 174.125 32.3809C174.186 32.1894 174.488 32.2297 174.589 32.3507C175.768 33.8528 176.746 35.5061 177.482 37.2602C177.321 37.2501 177.16 37.2501 176.998 37.24C177.442 35.7782 177.895 34.3165 178.339 32.8446C178.389 32.6833 178.662 32.6833 178.762 32.7741C179.891 33.8528 180.91 35.0322 181.807 36.3125C181.656 36.3226 181.494 36.3327 181.343 36.3428C181.847 35.3145 182.21 34.2157 182.422 33.0866C182.452 32.9051 182.724 32.8446 182.855 32.9656C183.783 33.8024 184.579 34.7601 185.224 35.8287C185.073 35.8387 184.912 35.8488 184.761 35.8589C185.093 34.8508 185.416 33.8528 185.749 32.8446C185.799 32.6833 186.061 32.6833 186.172 32.7741C187.17 33.6108 188.037 34.5786 188.753 35.6573C188.602 35.6674 188.44 35.6774 188.289 35.6875C188.622 34.5282 188.954 33.3588 189.277 32.1995C189.337 31.9978 189.64 32.0583 189.741 32.1692C190.89 33.4193 192.039 34.6592 193.188 35.9093C193.027 35.9395 192.876 35.9597 192.715 35.99C192.967 34.3367 193.229 32.6833 193.481 31.03C193.511 30.8284 193.854 30.778 193.955 30.9494C195.084 32.9455 196.062 35.0322 196.868 37.1795C196.707 37.1694 196.545 37.1694 196.384 37.1594C197.281 34.8004 198.3 32.4817 199.449 30.2336C199.529 30.0723 199.882 30.0421 199.933 30.2538C200.679 33.4294 201.425 36.5948 202.171 39.7704C202.009 39.7603 201.848 39.7603 201.687 39.7502C203.028 37.1896 204.368 34.629 205.699 32.0684C205.8 31.8769 206.173 31.897 206.193 32.139C206.415 35.244 206.647 38.3489 206.869 41.4539C206.929 42.3411 207 43.2383 207.06 44.1254C206.899 44.1052 206.727 44.075 206.566 44.0548C207.282 41.7563 208.723 39.7099 210.659 38.2582C210.851 38.1372 211.254 38.3792 211.002 38.5707Z" fill="#0D0065"/>
</g>
<mask id="mask11_3517_633" style="mask-type:luminance" maskUnits="userSpaceOnUse" x="171" y="15" width="41" height="42">
<path d="M191.011 56.011C179.959 56.011 171 47.0518 171 36C171 24.9482 179.959 15.989 191.011 15.989C202.063 15.989 211.022 24.9482 211.022 36C211.022 47.0518 202.063 56.011 191.011 56.011Z" fill="white"/>
</mask>
<g mask="url(#mask11_3517_633)">
<path d="M208.975 27.3605C208.129 29.1247 207.473 30.9797 207.04 32.8951C207.02 32.9959 206.747 33.3386 206.657 33.1269C206.032 31.645 205.437 30.1429 204.872 28.6308C204.6 27.9049 204.338 27.1791 204.076 26.4532C203.874 25.8887 203.653 25.3241 203.35 24.81C203.017 24.2455 202.574 23.7414 201.959 23.4793C202.07 23.3684 202.171 23.2575 202.282 23.1466C202.544 25.6165 201.979 28.1469 200.699 30.274C200.658 30.3445 200.417 30.5663 200.356 30.3949C199.539 28.0259 198.552 25.5963 196.828 23.7414C196.344 23.2273 195.809 22.7635 195.235 22.3603C195.356 22.2696 195.477 22.1889 195.598 22.0982C195.406 24.9713 195.124 27.8343 194.741 30.6873C194.721 30.8083 194.459 31.1107 194.358 30.9192C193.39 28.9735 192.392 26.9875 190.91 25.3645C190.497 24.9108 190.043 24.4874 189.549 24.1144C189.67 24.0136 189.791 23.9027 189.912 23.8019C190.083 26.6549 189.579 29.5381 188.45 32.1591C188.42 32.2398 188.148 32.5321 188.077 32.3305C187.321 30.0724 186.525 27.7335 184.962 25.8786C185.083 25.7879 185.204 25.7072 185.325 25.6165C185.093 26.9976 184.871 28.3686 184.64 29.7498C184.458 30.8688 184.226 32.0079 183.49 32.9051C183.45 32.9555 183.228 33.1168 183.188 32.9656C182.523 30.6571 181.444 28.4795 180.012 26.5641C180.143 26.4835 180.264 26.4129 180.395 26.3323C179.801 28.6408 178.722 30.8083 177.25 32.6834C177.19 32.764 176.958 32.8951 176.938 32.7035C176.706 30.274 176.444 27.6529 174.901 25.6568C174.992 25.6266 175.083 25.5963 175.184 25.5661C173.621 27.4412 172.149 29.3969 170.778 31.4232C170.728 31.5039 170.607 31.6349 170.496 31.5946C170.385 31.5543 170.415 31.4131 170.466 31.3426C171.857 29.2759 173.359 27.29 174.952 25.3746C174.992 25.3242 175.163 25.1931 175.234 25.2838C176.817 27.3303 177.109 29.9917 177.341 32.4817C177.24 32.4918 177.129 32.4918 177.028 32.5019C178.43 30.7276 179.448 28.6711 180.012 26.4835C180.043 26.3524 180.264 26.0702 180.395 26.2516C181.827 28.1771 182.906 30.3546 183.571 32.6531C183.47 32.6733 183.369 32.6934 183.269 32.7136C183.974 31.8668 184.125 30.7175 184.297 29.659C184.509 28.3586 184.73 27.0581 184.942 25.7476C184.962 25.6467 185.184 25.3443 185.305 25.4854C186.888 27.3605 187.694 29.7094 188.47 32.0079C188.349 32.0684 188.228 32.1188 188.097 32.1793C189.206 29.6187 189.7 26.8162 189.529 24.0338C189.519 23.8926 189.731 23.6003 189.892 23.7213C191.646 25.062 192.856 26.9573 193.884 28.8929C194.186 29.4574 194.469 30.0219 194.751 30.5865C194.62 30.6671 194.499 30.7377 194.368 30.8184C194.751 27.9654 195.043 25.1024 195.225 22.2292C195.235 22.0881 195.436 21.8764 195.588 21.9671C197.705 23.4188 199.046 25.6972 200.003 28.0158C200.285 28.6912 200.538 29.3768 200.769 30.0724C200.658 30.1127 200.538 30.153 200.427 30.1933C201.646 28.1569 202.171 25.7476 201.919 23.3886C201.909 23.2575 202.09 22.9954 202.241 23.0559C203.37 23.5398 203.935 24.679 204.348 25.7677C204.913 27.2496 205.427 28.7416 206.001 30.2236C206.344 31.0905 206.697 31.9474 207.05 32.8043C206.919 32.885 206.798 32.9555 206.667 33.0362C207.11 31.0905 207.766 29.1953 208.633 27.3908C208.683 27.29 208.774 27.169 208.895 27.1589C208.985 27.1589 209.016 27.2799 208.975 27.3605Z" fill="#0D0065"/>
</g>
<mask id="mask12_3517_633" style="mask-type:luminance" maskUnits="userSpaceOnUse" x="171" y="15" width="41" height="42">
<path d="M191.011 56.011C179.959 56.011 171 47.0518 171 36C171 24.9482 179.959 15.989 191.011 15.989C202.063 15.989 211.022 24.9482 211.022 36C211.022 47.0518 202.063 56.011 191.011 56.011Z" fill="white"/>
</mask>
<g mask="url(#mask12_3517_633)">
<path d="M204.247 24.0035C204.328 22.1486 204.046 20.2836 203.431 18.5395C203.249 18.0355 203.048 17.5415 202.816 17.0677C202.957 16.9971 203.098 16.9266 203.239 16.856C202.866 18.8017 202.443 20.8683 201.112 22.4208C201.052 22.4913 200.749 22.703 200.719 22.5014C200.366 20.2332 199.983 17.8641 198.814 15.8479C198.491 15.2934 198.118 14.7793 197.675 14.3156C197.816 14.2349 197.957 14.1442 198.098 14.0635C198.098 16.1604 197.826 18.2573 197.271 20.2836C197.12 20.8582 196.939 21.4227 196.737 21.9873C196.697 22.0881 196.344 22.32 196.314 22.1183C195.961 19.9207 195.255 17.7734 194.227 15.7975C193.934 15.243 193.622 14.6986 193.289 14.1643C193.43 14.0938 193.572 14.0232 193.713 13.9526C193.43 16.1604 193.874 18.4085 193.531 20.6062C193.43 21.2211 193.269 21.8159 193.027 22.3905C192.987 22.4712 192.896 22.5417 192.815 22.572C192.765 22.5921 192.644 22.6224 192.614 22.5518C191.888 20.8683 191.142 19.1242 189.892 17.7532C189.549 17.3701 189.166 17.0274 188.743 16.735C188.874 16.6443 189.005 16.5536 189.136 16.4528C189.227 18.5295 189.327 20.6263 188.985 22.6829C188.884 23.2676 188.753 23.8321 188.581 24.3967C188.541 24.5277 188.229 24.7898 188.138 24.568C187.462 22.8744 186.737 21.1001 185.456 19.7594C185.103 19.3864 184.7 19.0638 184.267 18.7916C184.398 18.7109 184.529 18.6303 184.66 18.5597C184.549 19.5577 184.448 20.5658 184.337 21.5639C184.226 22.5216 184.095 23.4692 183.863 24.4067C183.732 24.931 183.571 25.4552 183.369 25.9592C183.319 26.0701 183.007 26.2919 182.946 26.0903C182.442 24.4471 181.928 22.7534 180.91 21.3421C180.627 20.9489 180.305 20.586 179.952 20.2634C180.093 20.1928 180.234 20.1223 180.375 20.0517C180.144 21.9268 179.599 23.7616 178.762 25.4653C178.531 25.9492 178.268 26.4129 177.986 26.8665C177.936 26.9472 177.603 27.1387 177.593 26.9472C177.452 24.5781 176.918 22.2191 176.01 20.0315C175.748 19.4065 175.466 18.8017 175.153 18.1968C175.063 18.0153 175.476 17.7431 175.567 17.9044C176.686 20.0215 177.452 22.32 177.825 24.689C177.926 25.3645 178.006 26.0399 178.047 26.7254C177.916 26.7556 177.785 26.7758 177.654 26.8061C178.611 25.2435 179.297 23.5196 179.69 21.7353C179.801 21.2211 179.892 20.707 179.952 20.1828C179.972 20.0215 180.244 19.8501 180.375 19.9711C181.676 21.1606 182.402 22.8039 182.956 24.4471C183.117 24.9209 183.259 25.3947 183.41 25.8786C183.269 25.9189 183.128 25.9592 182.986 26.0096C183.692 24.2253 183.853 22.2897 184.065 20.4045C184.126 19.84 184.186 19.2755 184.247 18.7109C184.257 18.5799 184.509 18.3883 184.64 18.4791C186.253 19.4872 187.231 21.1909 187.977 22.8946C188.198 23.3886 188.39 23.8825 188.592 24.3866C188.44 24.4471 188.299 24.5076 188.148 24.558C188.763 22.5821 188.833 20.5054 188.773 18.4488C188.753 17.8641 188.733 17.2794 188.702 16.6947C188.692 16.5536 188.954 16.3116 189.096 16.4124C190.628 17.4911 191.596 19.1444 192.372 20.8078C192.604 21.2917 192.815 21.7857 193.027 22.2796C192.886 22.33 192.755 22.3905 192.614 22.4409C193.491 20.3945 193.168 18.1161 193.168 15.9588C193.168 15.3338 193.188 14.7188 193.269 14.0938C193.289 13.9627 193.592 13.7208 193.693 13.8821C194.902 15.7773 195.81 17.8641 196.364 20.0416C196.525 20.6566 196.646 21.2816 196.757 21.9066C196.616 21.947 196.475 21.9873 196.334 22.0377C197.019 20.1021 197.433 18.0859 197.594 16.0394C197.634 15.4547 197.654 14.8801 197.654 14.2954C197.654 14.1341 197.937 13.8922 198.078 14.0434C199.691 15.7572 200.376 18.0657 200.81 20.3239C200.941 20.9792 201.042 21.6445 201.142 22.2998C201.011 22.33 200.88 22.3502 200.749 22.3804C202.05 20.8582 202.443 18.8621 202.806 16.977C202.826 16.8862 202.917 16.7955 202.997 16.7552C203.048 16.7249 203.189 16.6846 203.229 16.7653C204.056 18.4791 204.55 20.3441 204.671 22.2393C204.701 22.7837 204.711 23.3281 204.681 23.8624C204.681 24.0438 204.237 24.2555 204.247 24.0035Z" fill="#0D0065"/>
</g>
<path d="M230.702 23.212L229.982 29.5H227.598L229.262 17.74L233.95 24.972L238.638 17.74L240.302 29.5H237.918L237.198 23.212L233.95 28.46L230.702 23.212ZM243.181 27.308C243.181 27.5107 243.229 27.6813 243.325 27.82C243.421 27.948 243.56 28.0493 243.741 28.124C243.923 28.188 244.141 28.22 244.397 28.22C244.728 28.22 245.032 28.1667 245.309 28.06C245.587 27.9533 245.805 27.7773 245.965 27.532C246.125 27.2867 246.205 26.9613 246.205 26.556L246.461 27.42C246.461 27.8893 246.339 28.2947 246.093 28.636C245.848 28.9667 245.517 29.2227 245.101 29.404C244.696 29.5747 244.237 29.66 243.725 29.66C243.203 29.66 242.739 29.5747 242.333 29.404C241.939 29.2227 241.635 28.972 241.421 28.652C241.208 28.3213 241.101 27.9267 241.101 27.468C241.101 26.9347 241.235 26.4867 241.501 26.124C241.779 25.7613 242.157 25.484 242.637 25.292C243.117 25.1 243.661 25.004 244.269 25.004C244.664 25.004 245.032 25.052 245.373 25.148C245.715 25.244 246.003 25.356 246.237 25.484C246.472 25.612 246.637 25.7347 246.733 25.852V26.86C246.435 26.636 246.125 26.4707 245.805 26.364C245.485 26.2573 245.107 26.204 244.669 26.204C244.349 26.204 244.077 26.252 243.853 26.348C243.629 26.444 243.459 26.572 243.341 26.732C243.235 26.892 243.181 27.084 243.181 27.308ZM242.525 24.236L241.773 22.812C242.147 22.6093 242.605 22.4173 243.149 22.236C243.693 22.044 244.296 21.948 244.957 21.948C245.597 21.948 246.157 22.0387 246.637 22.22C247.128 22.4013 247.512 22.668 247.789 23.02C248.067 23.3613 248.205 23.7827 248.205 24.284V29.5H246.205V24.62C246.205 24.2893 246.077 24.0333 245.821 23.852C245.565 23.66 245.235 23.564 244.829 23.564C244.477 23.564 244.147 23.6067 243.837 23.692C243.539 23.7667 243.272 23.8573 243.037 23.964C242.813 24.0707 242.643 24.1613 242.525 24.236ZM247.661 18.588L244.781 20.988L243.613 20.364L246.013 17.804L247.661 18.588ZM251.967 22.14V29.5H249.935V22.14H251.967ZM254.127 24.3C253.989 24.172 253.845 24.076 253.695 24.012C253.557 23.9373 253.381 23.9 253.167 23.9C252.911 23.9 252.693 23.9693 252.511 24.108C252.33 24.2467 252.191 24.444 252.095 24.7C252.01 24.9453 251.967 25.244 251.967 25.596L251.391 25.02C251.391 24.4333 251.503 23.916 251.727 23.468C251.951 23.0093 252.245 22.6467 252.607 22.38C252.97 22.1027 253.343 21.964 253.727 21.964C253.994 21.964 254.245 22.012 254.479 22.108C254.725 22.204 254.922 22.348 255.071 22.54L254.127 24.3ZM266.854 24.796V29.5H264.774V25.02C264.774 24.5187 264.688 24.1453 264.518 23.9C264.347 23.644 264.07 23.516 263.686 23.516C263.43 23.516 263.206 23.5747 263.014 23.692C262.822 23.7987 262.672 23.9693 262.566 24.204C262.459 24.428 262.406 24.7 262.406 25.02V29.5H260.342V25.02C260.342 24.5187 260.256 24.1453 260.086 23.9C259.915 23.644 259.638 23.516 259.254 23.516C258.998 23.516 258.774 23.5747 258.582 23.692C258.39 23.7987 258.24 23.9693 258.134 24.204C258.027 24.428 257.974 24.7 257.974 25.02V29.5H255.974V22.14H257.974V23.228C258.187 22.8227 258.47 22.5133 258.822 22.3C259.174 22.0867 259.595 21.98 260.086 21.98C260.63 21.98 261.078 22.0867 261.43 22.3C261.782 22.5133 262.038 22.828 262.198 23.244C262.464 22.828 262.79 22.5133 263.174 22.3C263.568 22.0867 264.016 21.98 264.518 21.98C265.062 21.98 265.504 22.092 265.846 22.316C266.187 22.5293 266.438 22.8493 266.598 23.276C266.768 23.692 266.854 24.1987 266.854 24.796ZM268.203 25.82C268.203 25.052 268.379 24.38 268.731 23.804C269.094 23.228 269.579 22.78 270.187 22.46C270.806 22.14 271.505 21.98 272.283 21.98C273.062 21.98 273.755 22.14 274.363 22.46C274.982 22.78 275.467 23.228 275.819 23.804C276.182 24.38 276.363 25.052 276.363 25.82C276.363 26.5773 276.182 27.2493 275.819 27.836C275.467 28.412 274.982 28.86 274.363 29.18C273.755 29.5 273.062 29.66 272.283 29.66C271.505 29.66 270.806 29.5 270.187 29.18C269.579 28.86 269.094 28.412 268.731 27.836C268.379 27.2493 268.203 26.5773 268.203 25.82ZM270.315 25.82C270.315 26.236 270.401 26.604 270.571 26.924C270.753 27.2333 270.993 27.4787 271.291 27.66C271.59 27.8307 271.921 27.916 272.283 27.916C272.646 27.916 272.977 27.8307 273.275 27.66C273.574 27.4787 273.809 27.2333 273.979 26.924C274.161 26.604 274.251 26.236 274.251 25.82C274.251 25.404 274.161 25.036 273.979 24.716C273.809 24.396 273.574 24.1507 273.275 23.98C272.977 23.8093 272.646 23.724 272.283 23.724C271.921 23.724 271.59 23.8093 271.291 23.98C270.993 24.1507 270.753 24.396 270.571 24.716C270.401 25.036 270.315 25.404 270.315 25.82ZM279.754 22.14V29.5H277.722V22.14H279.754ZM281.914 24.3C281.776 24.172 281.632 24.076 281.482 24.012C281.344 23.9373 281.168 23.9 280.954 23.9C280.698 23.9 280.48 23.9693 280.298 24.108C280.117 24.2467 279.978 24.444 279.882 24.7C279.797 24.9453 279.754 25.244 279.754 25.596L279.178 25.02C279.178 24.4333 279.29 23.916 279.514 23.468C279.738 23.0093 280.032 22.6467 280.394 22.38C280.757 22.1027 281.13 21.964 281.514 21.964C281.781 21.964 282.032 22.012 282.266 22.108C282.512 22.204 282.709 22.348 282.858 22.54L281.914 24.3ZM286.998 29.66C286.198 29.66 285.5 29.5 284.902 29.18C284.305 28.86 283.841 28.4173 283.51 27.852C283.19 27.276 283.03 26.5987 283.03 25.82C283.03 25.0307 283.19 24.3533 283.51 23.788C283.841 23.212 284.305 22.7693 284.902 22.46C285.5 22.14 286.204 21.98 287.014 21.98C287.825 21.98 288.513 22.1293 289.078 22.428C289.654 22.716 290.092 23.1427 290.39 23.708C290.689 24.2627 290.838 24.9347 290.838 25.724C290.838 25.82 290.833 25.9213 290.822 26.028C290.822 26.1347 290.817 26.22 290.806 26.284H284.214V25.004H288.998L288.438 25.74C288.481 25.676 288.518 25.5907 288.55 25.484C288.593 25.3667 288.614 25.2707 288.614 25.196C288.614 24.8333 288.545 24.524 288.406 24.268C288.278 24.012 288.092 23.8093 287.846 23.66C287.601 23.5107 287.313 23.436 286.982 23.436C286.577 23.436 286.236 23.5267 285.958 23.708C285.692 23.8787 285.484 24.14 285.334 24.492C285.196 24.8333 285.121 25.26 285.11 25.772C285.11 26.2627 285.18 26.6787 285.318 27.02C285.468 27.3613 285.686 27.6227 285.974 27.804C286.262 27.9853 286.609 28.076 287.014 28.076C287.473 28.076 287.862 27.9907 288.182 27.82C288.513 27.6387 288.785 27.372 288.998 27.02L290.806 27.58C290.422 28.2733 289.91 28.796 289.27 29.148C288.641 29.4893 287.884 29.66 286.998 29.66ZM292.573 26.956C292.883 27.244 293.171 27.4787 293.437 27.66C293.704 27.8307 293.955 27.9587 294.189 28.044C294.435 28.1293 294.664 28.172 294.877 28.172C295.155 28.172 295.368 28.1133 295.517 27.996C295.667 27.868 295.741 27.6973 295.741 27.484C295.741 27.292 295.677 27.132 295.549 27.004C295.432 26.8653 295.256 26.7427 295.021 26.636C294.787 26.5293 294.488 26.4173 294.125 26.3C293.784 26.172 293.453 26.0227 293.133 25.852C292.813 25.6707 292.547 25.436 292.333 25.148C292.131 24.8493 292.029 24.4707 292.029 24.012C292.029 23.5747 292.147 23.2067 292.381 22.908C292.616 22.5987 292.931 22.3693 293.325 22.22C293.731 22.06 294.179 21.98 294.669 21.98C295.085 21.98 295.475 22.0333 295.837 22.14C296.2 22.2467 296.536 22.3907 296.845 22.572C297.155 22.7427 297.427 22.9453 297.661 23.18L296.749 24.46C296.483 24.172 296.163 23.9373 295.789 23.756C295.427 23.5747 295.069 23.484 294.717 23.484C294.483 23.484 294.296 23.532 294.157 23.628C294.029 23.7133 293.965 23.8467 293.965 24.028C293.965 24.188 294.029 24.332 294.157 24.46C294.296 24.5773 294.488 24.684 294.733 24.78C294.989 24.876 295.277 24.9933 295.597 25.132C295.992 25.2813 296.355 25.452 296.685 25.644C297.027 25.8253 297.299 26.0547 297.501 26.332C297.704 26.6093 297.805 26.972 297.805 27.42C297.805 28.156 297.565 28.732 297.085 29.148C296.605 29.5533 295.944 29.756 295.101 29.756C294.579 29.756 294.099 29.6867 293.661 29.548C293.235 29.4093 292.845 29.228 292.493 29.004C292.152 28.7693 291.843 28.5187 291.565 28.252L292.573 26.956ZM233.678 49.34V47.516H239.198C239.23 48.3693 239.129 49.1747 238.894 49.932C238.67 50.6893 238.313 51.3613 237.822 51.948C237.342 52.524 236.745 52.9773 236.03 53.308C235.315 53.6387 234.499 53.804 233.582 53.804C232.718 53.804 231.918 53.66 231.182 53.372C230.457 53.084 229.822 52.6787 229.278 52.156C228.745 51.6333 228.329 51.0093 228.03 50.284C227.742 49.5587 227.598 48.764 227.598 47.9C227.598 47.036 227.747 46.2467 228.046 45.532C228.355 44.8067 228.782 44.188 229.326 43.676C229.87 43.164 230.51 42.7693 231.246 42.492C231.982 42.2147 232.782 42.076 233.646 42.076C234.414 42.076 235.102 42.1827 235.71 42.396C236.329 42.6093 236.873 42.908 237.342 43.292C237.822 43.6653 238.233 44.1133 238.574 44.636L236.622 45.772C236.345 45.2813 235.955 44.8867 235.454 44.588C234.963 44.2787 234.361 44.124 233.646 44.124C232.974 44.124 232.361 44.2787 231.806 44.588C231.251 44.8867 230.809 45.3187 230.478 45.884C230.158 46.4493 229.998 47.1213 229.998 47.9C229.998 48.668 230.158 49.3453 230.478 49.932C230.798 50.508 231.23 50.956 231.774 51.276C232.329 51.596 232.953 51.756 233.646 51.756C234.105 51.756 234.515 51.6973 234.878 51.58C235.241 51.452 235.55 51.276 235.806 51.052C236.073 50.828 236.297 50.572 236.478 50.284C236.659 49.996 236.798 49.6813 236.894 49.34H233.678ZM242.71 46.14V53.5H240.678V46.14H242.71ZM244.87 48.3C244.731 48.172 244.587 48.076 244.438 48.012C244.299 47.9373 244.123 47.9 243.91 47.9C243.654 47.9 243.435 47.9693 243.254 48.108C243.073 48.2467 242.934 48.444 242.838 48.7C242.753 48.9453 242.71 49.244 242.71 49.596L242.134 49.02C242.134 48.4333 242.246 47.916 242.47 47.468C242.694 47.0093 242.987 46.6467 243.35 46.38C243.713 46.1027 244.086 45.964 244.47 45.964C244.737 45.964 244.987 46.012 245.222 46.108C245.467 46.204 245.665 46.348 245.814 46.54L244.87 48.3ZM248.188 51.212C248.188 51.4253 248.242 51.612 248.348 51.772C248.455 51.9213 248.599 52.0387 248.78 52.124C248.972 52.1987 249.18 52.236 249.404 52.236C249.724 52.236 250.012 52.172 250.268 52.044C250.524 51.9053 250.732 51.7133 250.892 51.468C251.052 51.212 251.132 50.908 251.132 50.556L251.388 51.516C251.388 51.9853 251.255 52.38 250.988 52.7C250.732 53.02 250.396 53.26 249.98 53.42C249.575 53.58 249.148 53.66 248.7 53.66C248.242 53.66 247.815 53.5693 247.42 53.388C247.026 53.2067 246.706 52.9453 246.46 52.604C246.226 52.252 246.108 51.8253 246.108 51.324C246.108 50.6093 246.359 50.044 246.86 49.628C247.362 49.212 248.071 49.004 248.988 49.004C249.458 49.004 249.868 49.052 250.22 49.148C250.583 49.244 250.887 49.3613 251.132 49.5C251.378 49.6387 251.554 49.772 251.66 49.9V50.86C251.372 50.6467 251.047 50.4867 250.684 50.38C250.332 50.2733 249.959 50.22 249.564 50.22C249.244 50.22 248.983 50.2627 248.78 50.348C248.578 50.4227 248.428 50.5347 248.332 50.684C248.236 50.8227 248.188 50.9987 248.188 51.212ZM247.388 48.22L246.62 46.812C247.004 46.6093 247.474 46.4173 248.028 46.236C248.583 46.044 249.202 45.948 249.884 45.948C250.514 45.948 251.074 46.0387 251.564 46.22C252.055 46.4013 252.439 46.668 252.716 47.02C252.994 47.3613 253.132 47.7827 253.132 48.284V53.5H251.132V48.716C251.132 48.5133 251.1 48.3427 251.036 48.204C250.972 48.0547 250.871 47.932 250.732 47.836C250.604 47.74 250.45 47.6707 250.268 47.628C250.087 47.5853 249.884 47.564 249.66 47.564C249.319 47.564 248.994 47.6013 248.684 47.676C248.375 47.7507 248.108 47.8413 247.884 47.948C247.66 48.0547 247.495 48.1453 247.388 48.22ZM259.616 49.02C259.616 48.5293 259.52 48.156 259.328 47.9C259.136 47.644 258.827 47.516 258.4 47.516C258.112 47.516 257.856 47.58 257.632 47.708C257.408 47.8253 257.238 47.996 257.12 48.22C257.003 48.444 256.944 48.7107 256.944 49.02V53.5H254.864V46.14H256.944V47.26C257.168 46.844 257.462 46.5293 257.824 46.316C258.198 46.092 258.646 45.98 259.168 45.98C260.043 45.98 260.694 46.2307 261.12 46.732C261.547 47.2227 261.76 47.9107 261.76 48.796V53.5H259.616V49.02ZM263.51 43.292C263.51 42.9507 263.632 42.6733 263.878 42.46C264.123 42.236 264.416 42.124 264.758 42.124C265.099 42.124 265.387 42.236 265.622 42.46C265.867 42.6733 265.99 42.9507 265.99 43.292C265.99 43.6227 265.867 43.9 265.622 44.124C265.387 44.348 265.099 44.46 264.758 44.46C264.416 44.46 264.123 44.348 263.878 44.124C263.632 43.9 263.51 43.6227 263.51 43.292ZM263.734 46.14H265.75V53.5H263.734V46.14ZM266.809 46.14H271.353V47.884H266.809V46.14ZM268.073 43.58H270.073V53.5H268.073V43.58ZM271.765 49.82C271.765 49.052 271.941 48.38 272.293 47.804C272.655 47.228 273.141 46.78 273.749 46.46C274.367 46.14 275.066 45.98 275.845 45.98C276.623 45.98 277.317 46.14 277.925 46.46C278.543 46.78 279.029 47.228 279.381 47.804C279.743 48.38 279.925 49.052 279.925 49.82C279.925 50.5773 279.743 51.2493 279.381 51.836C279.029 52.412 278.543 52.86 277.925 53.18C277.317 53.5 276.623 53.66 275.845 53.66C275.066 53.66 274.367 53.5 273.749 53.18C273.141 52.86 272.655 52.412 272.293 51.836C271.941 51.2493 271.765 50.5773 271.765 49.82ZM273.877 49.82C273.877 50.236 273.962 50.604 274.133 50.924C274.314 51.2333 274.554 51.4787 274.853 51.66C275.151 51.8307 275.482 51.916 275.845 51.916C276.207 51.916 276.538 51.8307 276.837 51.66C277.135 51.4787 277.37 51.2333 277.541 50.924C277.722 50.604 277.813 50.236 277.813 49.82C277.813 49.404 277.722 49.036 277.541 48.716C277.37 48.396 277.135 48.1507 276.837 47.98C276.538 47.8093 276.207 47.724 275.845 47.724C275.482 47.724 275.151 47.8093 274.853 47.98C274.554 48.1507 274.314 48.396 274.133 48.716C273.962 49.036 273.877 49.404 273.877 49.82ZM281.651 50.956C281.961 51.244 282.249 51.4787 282.515 51.66C282.782 51.8307 283.033 51.9587 283.267 52.044C283.513 52.1293 283.742 52.172 283.955 52.172C284.233 52.172 284.446 52.1133 284.595 51.996C284.745 51.868 284.819 51.6973 284.819 51.484C284.819 51.292 284.755 51.132 284.627 51.004C284.51 50.8653 284.334 50.7427 284.099 50.636C283.865 50.5293 283.566 50.4173 283.203 50.3C282.862 50.172 282.531 50.0227 282.211 49.852C281.891 49.6707 281.625 49.436 281.411 49.148C281.209 48.8493 281.107 48.4707 281.107 48.012C281.107 47.5747 281.225 47.2067 281.459 46.908C281.694 46.5987 282.009 46.3693 282.403 46.22C282.809 46.06 283.257 45.98 283.747 45.98C284.163 45.98 284.553 46.0333 284.915 46.14C285.278 46.2467 285.614 46.3907 285.923 46.572C286.233 46.7427 286.505 46.9453 286.739 47.18L285.827 48.46C285.561 48.172 285.241 47.9373 284.867 47.756C284.505 47.5747 284.147 47.484 283.795 47.484C283.561 47.484 283.374 47.532 283.235 47.628C283.107 47.7133 283.043 47.8467 283.043 48.028C283.043 48.188 283.107 48.332 283.235 48.46C283.374 48.5773 283.566 48.684 283.811 48.78C284.067 48.876 284.355 48.9933 284.675 49.132C285.07 49.2813 285.433 49.452 285.763 49.644C286.105 49.8253 286.377 50.0547 286.579 50.332C286.782 50.6093 286.883 50.972 286.883 51.42C286.883 52.156 286.643 52.732 286.163 53.148C285.683 53.5533 285.022 53.756 284.179 53.756C283.657 53.756 283.177 53.6867 282.739 53.548C282.313 53.4093 281.923 53.228 281.571 53.004C281.23 52.7693 280.921 52.5187 280.643 52.252L281.651 50.956Z" fill="#2100BC"/>
<path d="M306.185 23.5C305.961 23.244 305.727 22.9773 305.481 22.7C305.236 22.4227 305.023 22.124 304.841 21.804C304.671 21.484 304.585 21.132 304.585 20.748C304.585 20.268 304.719 19.8253 304.985 19.42C305.252 19.004 305.625 18.6733 306.105 18.428C306.585 18.1827 307.156 18.06 307.817 18.06C308.468 18.06 309.023 18.188 309.481 18.444C309.94 18.7 310.287 19.0307 310.521 19.436C310.756 19.8307 310.873 20.252 310.873 20.7C310.873 21.0413 310.815 21.3453 310.697 21.612C310.58 21.8787 310.409 22.1347 310.185 22.38C309.961 22.6253 309.689 22.8653 309.369 23.1C309.049 23.3347 308.676 23.5907 308.249 23.868C307.961 24.0493 307.652 24.22 307.321 24.38C307.001 24.5293 306.697 24.6893 306.409 24.86C306.121 25.0307 305.887 25.2333 305.705 25.468C305.524 25.7027 305.433 25.996 305.433 26.348C305.433 26.6467 305.508 26.9187 305.657 27.164C305.817 27.3987 306.036 27.5853 306.313 27.724C306.601 27.852 306.937 27.916 307.321 27.916C307.791 27.916 308.249 27.82 308.697 27.628C309.156 27.4253 309.593 27.1533 310.009 26.812C310.436 26.46 310.841 26.06 311.225 25.612C311.609 25.1533 311.972 24.6733 312.313 24.172L313.737 25.212C313.364 25.7347 312.948 26.2627 312.489 26.796C312.041 27.3293 311.54 27.8147 310.985 28.252C310.441 28.6787 309.844 29.0253 309.193 29.292C308.543 29.5587 307.833 29.692 307.065 29.692C306.383 29.692 305.753 29.564 305.177 29.308C304.601 29.052 304.137 28.6893 303.785 28.22C303.433 27.74 303.257 27.1747 303.257 26.524C303.257 26.0227 303.353 25.5907 303.545 25.228C303.737 24.8653 303.983 24.556 304.281 24.3C304.58 24.0333 304.905 23.8093 305.257 23.628C305.609 23.4467 305.945 23.292 306.265 23.164C306.596 23.0253 306.873 22.9027 307.097 22.796C307.695 22.4867 308.153 22.1667 308.473 21.836C308.793 21.4947 308.953 21.1693 308.953 20.86C308.953 20.6573 308.905 20.4707 308.809 20.3C308.724 20.1293 308.596 19.996 308.425 19.9C308.255 19.7933 308.047 19.74 307.801 19.74C307.417 19.74 307.124 19.852 306.921 20.076C306.719 20.2893 306.617 20.5453 306.617 20.844C306.617 21.1747 306.756 21.5053 307.033 21.836C307.321 22.156 307.663 22.5347 308.057 22.972L313.977 29.5H311.593L306.185 23.5Z" fill="#0D0065"/>
</svg>
