<svg width="346" height="93" viewBox="0 0 346 93" fill="none" xmlns="http://www.w3.org/2000/svg">
<path d="M0.986113 26.657C0.807774 26.7408 0.524528 26.9816 0.356679 27.2014L0.0524528 27.5887V37.7013V47.8138L1.668 47.8661L3.29404 47.9185L1.80438 49.3213C0.797283 50.2843 0.272755 50.8601 0.157358 51.1323C0.0209811 51.4778 0 52.5351 0 59.015V66.5H3.09472H6.18943V60.1352L6.19992 53.7808L13.5433 46.3482C17.5822 42.255 20.9811 38.769 21.086 38.6015C21.2854 38.3084 21.2958 38.0886 21.2958 35.0423C21.2854 32.5926 21.2539 31.7342 21.149 31.5563C20.9182 31.1271 16.5331 26.8036 16.1869 26.657C15.6939 26.4477 1.47917 26.4477 0.986113 26.657ZM15.1064 34.2781V35.8693L13.921 37.0731C13.2706 37.7431 11.2669 39.795 9.46249 41.6269L6.18943 44.9664V38.8319V32.6869H10.6479H15.1064V34.2781Z" fill="#0D0065"/>
<path d="M28.4818 26.657C28.0412 26.8559 23.6037 31.2946 23.4358 31.7133C23.3204 31.9855 23.289 33.1998 23.289 37.7117V43.3647H25.3556H27.4118L25.471 45.3328C23.9184 46.903 23.4988 47.3846 23.4044 47.7196C23.2575 48.243 23.247 60.533 23.3939 61.0459C23.5093 61.4751 27.8209 65.9033 28.4608 66.2592L28.8804 66.5H36.7379H44.5848V63.3595V60.2189H37.0841H29.5833V54.88V49.5411H31.7653H33.9369L37.0841 46.4948C38.815 44.8198 40.2522 43.4066 40.2627 43.3542C40.2837 43.3019 37.9548 43.26 34.944 43.26H29.5833V37.9734V32.6869H37.0841H44.5848V29.5987V26.5105H36.6959C30.3071 26.5209 28.7336 26.5419 28.4818 26.657Z" fill="#0D0065"/>
<path d="M44.8997 29.5987V32.6869H50.7429H56.5861L54.6874 34.5084C53.0718 36.0786 52.7781 36.4032 52.6732 36.7905C52.5788 37.1255 52.5578 40.8941 52.5788 51.8441L52.6102 66.4477L55.6735 66.4791L58.7472 66.5L58.7682 49.6248L58.7997 32.7392L62.6077 32.7078L66.4053 32.6869V29.5987V26.5105H55.6525H44.8997V29.5987Z" fill="#0D0065"/>
<path d="M69.2167 26.7198C69.0069 26.835 68.7446 27.0862 68.6187 27.2747C68.3984 27.6306 68.3984 27.662 68.3984 37.7536V47.8661H69.993H71.5981L70.0245 49.4364L68.4509 51.0067L68.4194 58.7533L68.3984 66.5L71.4617 66.4791L74.5354 66.4477L74.5669 60.0619L74.5879 53.6761L76.3818 51.8965L78.1652 50.1169L80.8298 52.8387L83.4944 55.5605L83.5049 61.025V66.5H86.5996H89.6943V59.9781C89.6943 55.6023 89.6523 53.3307 89.5789 53.048C89.4845 52.6921 88.897 52.064 86.0016 49.1538L82.5292 45.6782L85.9806 42.1713C88.1732 39.9415 89.474 38.5387 89.5579 38.3189C89.6418 38.0781 89.6838 37.0313 89.6838 35.0109C89.6943 32.5822 89.6628 31.9855 89.5369 31.6714C89.3376 31.2003 84.9735 26.8769 84.4805 26.657C84.1972 26.5314 82.9069 26.5105 76.8748 26.5105C69.8986 26.5209 69.5944 26.5314 69.2167 26.7198ZM83.5049 34.2571V35.8169L79.0883 40.3288C76.6545 42.7994 74.6508 44.8303 74.6298 44.8303C74.6089 44.8303 74.5879 42.098 74.5879 38.7586V32.6869H79.0464H83.5049V34.2571Z" fill="#0D0065"/>
<path d="M98.4541 26.6361C98.0869 26.8455 93.5655 31.2527 93.4081 31.5458C93.2822 31.797 93.2612 33.3464 93.2612 41.4804C93.2612 50.1064 93.2822 51.1532 93.4291 51.4568C93.5235 51.6452 94.4572 52.6502 95.4957 53.6971L97.405 55.6128H95.3279H93.2612V61.0564V66.5H96.3559H99.4507L99.4716 61.0773L99.5031 55.6651L103.941 55.6337L108.368 55.6128V61.0564V66.5L111.494 66.4791L114.61 66.4477L114.641 49.3422C114.651 38.4236 114.631 32.1006 114.557 31.8599C114.484 31.5667 113.949 30.97 112.144 29.1799C110.885 27.9132 109.689 26.7931 109.501 26.6884C109.186 26.5209 108.714 26.5105 103.909 26.5105C100.195 26.5209 98.6009 26.5523 98.4541 26.6361ZM108.368 41.0093V49.3317H103.909H99.4507V41.0826C99.4507 36.5393 99.4821 32.7915 99.5241 32.7601C99.5556 32.7183 101.57 32.6869 103.983 32.6869H108.368V41.0093Z" fill="#0D0065"/>
<path d="M122.058 26.678C121.89 26.7617 120.883 27.662 119.844 28.6879C117.62 30.8444 117.652 30.7921 117.725 32.6136C117.767 33.5243 117.809 33.7965 117.987 34.0268C118.092 34.1838 118.984 34.969 119.949 35.7751L121.712 37.2406L119.739 37.293L117.757 37.3453L117.725 38.2875C117.704 38.8004 117.746 39.4809 117.809 39.774C117.924 40.3184 118.019 40.4126 125.373 47.8871L132.811 55.4453V57.7588V60.0828L130.429 60.1352C129.107 60.1666 127.114 60.1875 125.992 60.177L123.946 60.1666L123.894 57.3192L123.841 54.4717L120.778 56.9423L117.704 59.4024V59.9991C117.704 61.1925 117.715 61.203 120.358 63.8619C122.205 65.7044 122.876 66.322 123.159 66.3953C123.38 66.4581 125.719 66.5 128.877 66.5C133.87 66.5 134.258 66.4791 134.646 66.3011C135.15 66.0603 138.727 62.501 138.885 62.0718C138.958 61.8834 139 60.2817 139 57.5076C139 53.2783 139 53.2365 138.769 52.8072C138.633 52.5769 135.234 49.0595 131.206 44.9873L123.894 37.5861L123.915 35.1574L123.946 32.7392L128.363 32.7078L132.779 32.6869L132.842 33.1789C132.874 33.4615 132.884 34.8015 132.874 36.1624C132.863 37.5338 132.863 38.6539 132.884 38.6539C132.915 38.6539 134.3 37.4919 135.968 36.0577L139 33.472V32.7078C139 32.2891 138.937 31.797 138.853 31.6086C138.685 31.2108 134.437 26.9606 133.944 26.6884C133.629 26.5209 133.136 26.5105 127.985 26.5105C123.191 26.5105 122.33 26.5419 122.058 26.678Z" fill="#0D0065"/>
<line x1="149.5" y1="25.5" x2="149.5" y2="67.5" stroke="#0D0065"/>
<mask id="mask0_1535_642" style="mask-type:luminance" maskUnits="userSpaceOnUse" x="165" y="21" width="51" height="51">
<path d="M190.5 71.511C176.687 71.511 165.489 60.3132 165.489 46.5C165.489 32.6868 176.687 21.489 190.5 21.489C204.313 21.489 215.511 32.6868 215.511 46.5C215.511 60.3132 204.313 71.511 190.5 71.511Z" fill="white"/>
</mask>
<g mask="url(#mask0_1535_642)">
<path d="M212.399 72.3804C209.06 68.487 205.57 64.6314 201.323 61.7082C199.181 60.2214 196.85 59.0244 194.368 58.1928C191.747 57.3234 189.001 56.8572 186.254 56.643C180.483 56.202 174.725 56.8824 168.967 57.273C163.448 57.651 157.828 57.777 152.435 56.4162C147.937 55.2822 143.565 53.1276 140.428 49.6374C140.037 49.209 139.672 48.7554 139.331 48.2892C139.231 48.1506 139.823 48.0246 139.936 48.1758C142.784 52.0314 147.055 54.5136 151.604 55.8618C156.971 57.462 162.616 57.4242 168.16 57.0714C173.906 56.706 179.651 56.0004 185.422 56.3154C190.727 56.6052 195.931 57.8274 200.492 60.6372C204.839 63.3084 208.43 67.0128 211.756 70.8306C212.172 71.3094 212.588 71.7882 212.991 72.267C213.104 72.393 212.525 72.519 212.399 72.3804Z" fill="#0D0065"/>
</g>
<mask id="mask1_1535_642" style="mask-type:luminance" maskUnits="userSpaceOnUse" x="165" y="21" width="51" height="51">
<path d="M190.5 71.511C176.687 71.511 165.489 60.3132 165.489 46.5C165.489 32.6868 176.687 21.489 190.5 21.489C204.313 21.489 215.511 32.6868 215.511 46.5C215.511 60.3132 204.313 71.511 190.5 71.511Z" fill="white"/>
</mask>
<g mask="url(#mask1_1535_642)">
<path d="M215.423 64.7196C213.344 60.5112 210.37 56.7564 206.779 53.745C203.201 50.7462 198.992 48.453 194.469 47.2938C191.999 46.6512 189.467 46.3614 186.922 46.3992C183.835 46.4496 180.785 46.9158 177.761 47.4954C171.839 48.6546 165.943 50.3052 159.857 50.3052C154.905 50.3178 149.739 49.1082 145.808 45.9582C145.329 45.5676 144.875 45.1518 144.434 44.7234C144.182 44.4714 144.762 44.4336 144.926 44.5848C148.504 48.2262 153.658 49.776 158.66 49.9398C164.846 50.1414 170.882 48.4656 176.892 47.2686C182.411 46.1724 188.056 45.492 193.612 46.7394C198.136 47.7474 202.382 49.839 206.061 52.6488C209.753 55.4838 212.89 59.0748 215.171 63.132C215.461 63.636 215.725 64.1526 215.99 64.6692C216.116 64.9338 215.511 64.9086 215.423 64.7196Z" fill="#0D0065"/>
</g>
<mask id="mask2_1535_642" style="mask-type:luminance" maskUnits="userSpaceOnUse" x="165" y="21" width="51" height="51">
<path d="M190.5 71.511C176.687 71.511 165.489 60.3132 165.489 46.5C165.489 32.6868 176.687 21.489 190.5 21.489C204.313 21.489 215.511 32.6868 215.511 46.5C215.511 60.3132 204.313 71.511 190.5 71.511Z" fill="white"/>
</mask>
<g mask="url(#mask2_1535_642)">
<path d="M217.124 56.4036C215.939 51.8802 214.251 47.3064 210.912 43.917C209.413 42.3924 207.623 41.1576 205.607 40.4394C203.276 39.6078 200.744 39.507 198.287 39.759C193.234 40.2756 188.484 42.3168 183.431 42.8838C180.798 43.1862 178.127 43.098 175.493 42.8838C172.961 42.6822 170.416 42.405 167.921 41.8758C163.549 40.956 159.189 39.1416 156.165 35.7396C155.825 35.349 155.497 34.9458 155.195 34.53C155.018 34.278 155.497 33.8874 155.699 34.1772C158.37 37.8816 162.679 39.9984 167.026 41.0694C169.483 41.6742 172.003 41.9892 174.511 42.216C177.182 42.468 179.878 42.6318 182.562 42.4176C187.703 42.0018 192.503 39.9606 197.594 39.2928C199.988 38.9778 202.445 38.9652 204.788 39.5826C206.893 40.1244 208.808 41.208 210.433 42.6318C213.949 45.7062 215.902 50.0784 217.187 54.4758C217.351 55.0428 217.514 55.6224 217.666 56.202C217.754 56.4792 217.225 56.769 217.124 56.4036Z" fill="#0D0065"/>
</g>
<mask id="mask3_1535_642" style="mask-type:luminance" maskUnits="userSpaceOnUse" x="165" y="21" width="51" height="51">
<path d="M190.5 71.511C176.687 71.511 165.489 60.3132 165.489 46.5C165.489 32.6868 176.687 21.489 190.5 21.489C204.313 21.489 215.511 32.6868 215.511 46.5C215.511 60.3132 204.313 71.511 190.5 71.511Z" fill="white"/>
</mask>
<g mask="url(#mask3_1535_642)">
<path d="M219.026 42.0396C216.103 38.7132 212.953 35.5254 209.211 33.1314C205.469 30.7374 201.046 29.175 196.56 29.3892C194.267 29.5026 192.113 30.1578 190.021 31.0776C187.967 31.9848 185.976 33.0558 183.834 33.7614C180.294 34.9332 176.438 34.9836 172.835 34.0764C169.244 33.1692 165.867 31.3044 163.296 28.6206C162.969 28.2804 162.666 27.9276 162.364 27.5748C162.2 27.3732 162.641 26.9196 162.792 27.1086C165.186 30.0066 168.437 32.1108 172.016 33.2322C175.594 34.3536 179.487 34.5174 183.104 33.5094C185.258 32.9172 187.236 31.884 189.252 30.9516C191.268 30.0192 193.335 29.2254 195.565 28.9608C199.962 28.419 204.448 29.679 208.253 31.8336C212.134 34.026 215.385 37.0878 218.346 40.3386C218.724 40.7544 219.089 41.1576 219.455 41.5734C219.631 41.775 219.19 42.2286 219.026 42.0396Z" fill="#0D0065"/>
</g>
<mask id="mask4_1535_642" style="mask-type:luminance" maskUnits="userSpaceOnUse" x="165" y="21" width="51" height="51">
<path d="M190.5 71.511C176.687 71.511 165.489 60.3132 165.489 46.5C165.489 32.6868 176.687 21.489 190.5 21.489C204.313 21.489 215.511 32.6868 215.511 46.5C215.511 60.3132 204.313 71.511 190.5 71.511Z" fill="white"/>
</mask>
<g mask="url(#mask4_1535_642)">
<path d="M207.434 24.2484C205.091 22.6104 202.394 21.5268 199.572 21.0228C196.75 20.5188 193.814 20.6196 191.029 21.3252C188.056 22.0812 185.447 23.6814 182.675 24.9414C181.302 25.5714 179.866 26.1132 178.379 26.3904C176.854 26.6676 175.292 26.655 173.767 26.4156C170.642 25.9242 167.707 24.5382 165.061 22.8624C164.72 22.6482 164.393 22.434 164.065 22.2072C164.002 22.1694 163.838 22.0434 163.939 21.9678C164.027 21.8922 164.254 22.0056 164.33 22.056C166.938 23.82 169.811 25.3194 172.923 25.9494C174.46 26.2518 176.035 26.3274 177.585 26.088C179.11 25.8486 180.559 25.332 181.97 24.702C184.729 23.4546 187.337 21.8544 190.273 21.048C193.033 20.292 195.956 20.1534 198.778 20.5692C201.613 20.985 204.373 21.9804 206.804 23.4924C207.107 23.6814 207.409 23.883 207.699 24.0846C207.762 24.1224 207.926 24.2484 207.825 24.324C207.737 24.4122 207.51 24.2988 207.434 24.2484Z" fill="#0D0065"/>
</g>
<mask id="mask5_1535_642" style="mask-type:luminance" maskUnits="userSpaceOnUse" x="165" y="21" width="51" height="51">
<path d="M190.5 71.511C176.687 71.511 165.489 60.3132 165.489 46.5C165.489 32.6868 176.687 21.489 190.5 21.489C204.313 21.489 215.511 32.6868 215.511 46.5C215.511 60.3132 204.313 71.511 190.5 71.511Z" fill="white"/>
</mask>
<g mask="url(#mask5_1535_642)">
<path d="M199.232 74.7744C197.632 71.9016 195.565 69.2682 193.146 67.038C191.999 65.9796 190.727 64.9842 189.253 64.4172C187.577 63.7746 185.788 63.9006 184.061 64.203C180.521 64.833 177.068 65.8914 173.515 66.4836C170.428 67.0002 167.253 67.1388 164.191 66.408C161.495 65.7654 158.887 64.4802 157.035 62.3634C156.808 62.0988 156.593 61.8342 156.392 61.5444C156.152 61.2168 156.682 60.9396 156.896 61.2294C158.521 63.4974 161.003 64.959 163.662 65.6898C166.661 66.5214 169.773 66.471 172.835 66.0048C176.413 65.463 179.878 64.4172 183.419 63.7368C185.17 63.3966 186.997 63.1572 188.749 63.6486C190.286 64.077 191.634 64.959 192.844 65.967C195.351 68.0964 197.493 70.692 199.194 73.4892C199.408 73.842 199.61 74.1948 199.811 74.5602C199.887 74.6988 199.774 74.8752 199.635 74.913C199.471 75.0012 199.307 74.913 199.232 74.7744Z" fill="#0D0065"/>
</g>
<mask id="mask6_1535_642" style="mask-type:luminance" maskUnits="userSpaceOnUse" x="165" y="21" width="51" height="51">
<path d="M190.5 71.511C176.687 71.511 165.489 60.3132 165.489 46.5C165.489 32.6868 176.687 21.489 190.5 21.489C204.313 21.489 215.511 32.6868 215.511 46.5C215.511 60.3132 204.313 71.511 190.5 71.511Z" fill="white"/>
</mask>
<g mask="url(#mask6_1535_642)">
<path d="M209.312 55.6602C207.485 57.5754 205.305 59.1378 202.886 60.234C202.205 60.549 201.5 60.8262 200.794 61.0656C200.643 61.116 200.492 61.0278 200.542 60.8514C201.575 57.7518 202.369 54.2868 200.945 51.1746C200.605 50.4186 200.114 49.7256 199.522 49.1586C199.698 49.0578 199.874 48.9696 200.038 48.8688C199.509 51.7416 197.972 54.3624 195.767 56.2776C195.149 56.8194 194.469 57.2856 193.751 57.7014C193.675 57.7518 193.436 57.8022 193.423 57.6384C193.209 55.8744 193.033 54.0978 192.73 52.3464C192.503 50.9604 192.163 49.524 191.445 48.3018C191.054 47.634 190.55 47.0418 189.92 46.5882C190.084 46.4748 190.235 46.374 190.399 46.2606C190.185 49.272 190.891 52.5606 189.152 55.2696C188.749 55.8996 188.219 56.4414 187.602 56.8572C187.501 56.9202 187.325 56.9328 187.274 56.7942C186.216 53.9466 185.107 51.0108 183.091 48.6798C182.537 48.0372 181.907 47.4576 181.226 46.9536C181.39 46.8402 181.541 46.7394 181.705 46.626C181.756 49.2468 181.793 51.981 180.848 54.4632C180.584 55.1562 180.244 55.8114 179.828 56.4162C179.74 56.5422 179.412 56.7816 179.324 56.5296C178.24 53.4174 176.728 50.469 174.826 47.7726C174.989 47.697 175.166 47.6214 175.33 47.5458C174.725 50.1288 174.107 52.737 172.948 55.131C172.621 55.8114 172.243 56.4666 171.827 57.0966C171.751 57.21 171.386 57.4746 171.323 57.21C170.819 54.9672 170.277 52.6236 168.916 50.7336C168.538 50.2044 168.085 49.7256 167.581 49.3224C167.744 49.209 167.896 49.1082 168.059 48.9948C168.148 52.2456 167.354 55.4964 165.791 58.344C165.728 58.47 165.552 58.5834 165.413 58.5582C165.262 58.533 165.262 58.3818 165.325 58.2684C166.85 55.4964 167.593 52.3338 167.505 49.1712C167.505 49.0074 167.82 48.7176 167.984 48.8436C169.861 50.343 170.781 52.6362 171.386 54.8916C171.562 55.5594 171.713 56.2272 171.865 56.9076C171.701 56.9454 171.524 56.9832 171.361 57.021C172.835 54.8412 173.641 52.3086 174.271 49.776C174.46 49.0452 174.624 48.327 174.8 47.5962C174.838 47.445 175.178 47.1804 175.304 47.3694C177.22 50.091 178.744 53.0772 179.84 56.2272C179.677 56.265 179.5 56.3028 179.336 56.3406C180.811 54.1986 181.113 51.5652 181.151 49.0326C181.163 48.2892 181.151 47.5458 181.138 46.8024C181.138 46.626 181.453 46.3614 181.617 46.4748C184.162 48.3144 185.674 51.1494 186.846 53.997C187.186 54.816 187.501 55.6476 187.804 56.4792C187.69 56.454 187.589 56.4414 187.476 56.4162C188.497 55.7484 189.101 54.6144 189.429 53.4804C189.832 52.0818 189.82 50.595 189.807 49.146C189.794 48.2388 189.782 47.3316 189.845 46.4244C189.857 46.2606 190.147 45.9708 190.324 46.0968C192.818 47.886 193.196 51.2628 193.562 54.0852C193.7 55.1562 193.826 56.2398 193.952 57.3108C193.839 57.2856 193.738 57.273 193.625 57.2478C195.968 55.9122 197.821 53.745 198.829 51.2376C199.118 50.5194 199.333 49.776 199.484 49.0074C199.522 48.8184 199.811 48.5286 200 48.7176C201.097 49.776 201.764 51.1998 202.067 52.6866C202.407 54.375 202.268 56.0886 201.903 57.7644C201.689 58.785 201.386 59.7804 201.059 60.7632C200.971 60.6876 200.895 60.6246 200.807 60.549C203.201 59.7552 205.431 58.4952 207.371 56.8698C207.913 56.4162 208.43 55.9248 208.921 55.4082C209.009 55.32 209.186 55.2066 209.312 55.2822C209.45 55.3956 209.387 55.572 209.312 55.6602Z" fill="#0D0065"/>
</g>
<mask id="mask7_1535_642" style="mask-type:luminance" maskUnits="userSpaceOnUse" x="165" y="21" width="51" height="51">
<path d="M190.5 71.511C176.687 71.511 165.489 60.3132 165.489 46.5C165.489 32.6868 176.687 21.489 190.5 21.489C204.313 21.489 215.511 32.6868 215.511 46.5C215.511 60.3132 204.313 71.511 190.5 71.511Z" fill="white"/>
</mask>
<g mask="url(#mask7_1535_642)">
<path d="M209.45 55.6098C209.022 58.2558 207.913 60.7254 206.666 63.0816C206.313 63.7494 205.935 64.4172 205.57 65.085C205.481 64.959 205.393 64.833 205.305 64.6944C207.661 63.5604 210.03 62.4768 212.424 61.431C212.789 61.2798 212.802 61.8594 212.512 61.9854C210.118 63.0312 207.737 64.1148 205.393 65.2488C205.141 65.3748 205.028 65.0472 205.129 64.8582C206.389 62.6028 207.661 60.3096 208.417 57.8274C208.631 57.1344 208.808 56.4162 208.921 55.698C208.946 55.5468 209.035 55.383 209.198 55.3578C209.362 55.3326 209.476 55.4712 209.45 55.6098Z" fill="#0D0065"/>
</g>
<mask id="mask8_1535_642" style="mask-type:luminance" maskUnits="userSpaceOnUse" x="165" y="21" width="51" height="51">
<path d="M190.5 71.511C176.687 71.511 165.489 60.3132 165.489 46.5C165.489 32.6868 176.687 21.489 190.5 21.489C204.313 21.489 215.511 32.6868 215.511 46.5C215.511 60.3132 204.313 71.511 190.5 71.511Z" fill="white"/>
</mask>
<g mask="url(#mask8_1535_642)">
<path d="M196.535 70.4778C198.287 68.5248 200.076 66.534 201.235 64.1526C201.563 63.4848 201.827 62.7918 202.016 62.0736C202.193 62.1114 202.369 62.1618 202.545 62.1996C199.912 62.8296 197.392 63.9258 195.149 65.4378C194.507 65.8662 193.902 66.3324 193.31 66.8238C193.221 66.8994 193.07 66.8994 192.957 66.8868C192.894 66.8742 192.68 66.849 192.692 66.7482C193.032 64.4928 193.385 62.2374 193.725 59.982C193.826 59.3394 193.927 58.6968 194.015 58.0542C194.217 58.0794 194.431 58.1046 194.633 58.1298C192.944 59.541 191.394 61.1034 190.008 62.817C189.618 63.3084 189.227 63.7998 188.862 64.3038C188.774 64.4298 188.27 64.4046 188.244 64.2282C188.118 63.0942 187.98 61.9602 187.816 60.8262C187.677 59.8434 187.577 58.8228 187.236 57.8904C187.06 57.399 186.821 56.9454 186.468 56.5548C186.669 56.5548 186.884 56.5674 187.085 56.5674C186.304 58.4448 185.611 60.3474 185.006 62.2878C184.83 62.8422 184.666 63.384 184.515 63.9384C184.464 64.1148 183.973 64.0644 183.897 63.9258C182.852 62.0232 181.957 60.0324 181.1 58.0416C180.861 57.4746 180.609 56.9076 180.369 56.3406C180.571 56.3406 180.785 56.3532 180.987 56.3532C180.357 58.6716 179.739 60.9774 179.109 63.2958C178.933 63.951 178.757 64.6062 178.58 65.2614C178.53 65.4378 178.026 65.3874 177.963 65.2488C176.854 62.9934 175.67 60.7758 174.422 58.596C174.069 57.9786 173.717 57.3738 173.351 56.7564C173.553 56.7564 173.767 56.769 173.969 56.769C173.679 59.037 173.339 61.2924 172.948 63.5478C172.835 64.1904 172.721 64.833 172.595 65.4756C172.557 65.6646 171.94 65.589 171.965 65.4252C172.394 63.1824 172.759 60.927 173.087 58.659C173.175 58.0164 173.263 57.3738 173.351 56.7186C173.376 56.5296 173.906 56.6178 173.969 56.7312C175.254 58.8858 176.476 61.0782 177.623 63.3084C177.95 63.9384 178.265 64.5684 178.58 65.211C178.379 65.211 178.164 65.1984 177.963 65.1984C178.593 62.88 179.21 60.5742 179.84 58.2558C180.017 57.6006 180.193 56.9454 180.369 56.2902C180.42 56.1138 180.924 56.1642 180.987 56.3028C181.844 58.3062 182.688 60.297 183.658 62.2374C183.935 62.7918 184.212 63.3336 184.515 63.8754C184.313 63.8754 184.099 63.8628 183.897 63.8628C184.452 61.9098 185.107 59.982 185.825 58.092C186.027 57.5502 186.241 57.021 186.468 56.4918C186.543 56.3028 186.984 56.391 187.085 56.5044C187.715 57.1974 187.992 58.1172 188.156 59.0244C188.358 60.108 188.496 61.2042 188.635 62.2878C188.723 62.943 188.799 63.5982 188.874 64.2534C188.673 64.2282 188.459 64.203 188.257 64.1778C189.555 62.4012 191.016 60.7506 192.617 59.2512C193.07 58.8228 193.549 58.407 194.028 58.0038C194.116 57.9282 194.267 57.9282 194.381 57.9408C194.444 57.9534 194.658 57.9786 194.645 58.0794C194.305 60.3348 193.952 62.5902 193.612 64.8456C193.511 65.4882 193.41 66.1308 193.322 66.7734C193.121 66.7482 192.906 66.723 192.705 66.6978C194.822 64.9212 197.253 63.5478 199.862 62.628C200.605 62.3634 201.348 62.1492 202.117 61.9728C202.23 61.9476 202.344 61.9476 202.457 61.9728C202.495 61.9854 202.659 62.0232 202.646 62.0988C201.941 64.6692 200.34 66.8742 198.627 68.8776C198.135 69.4572 197.631 70.0116 197.127 70.5786C197.039 70.6794 196.85 70.6542 196.737 70.6416C196.686 70.6416 196.447 70.566 196.535 70.4778Z" fill="#0D0065"/>
</g>
<mask id="mask9_1535_642" style="mask-type:luminance" maskUnits="userSpaceOnUse" x="165" y="21" width="51" height="51">
<path d="M190.5 71.511C176.687 71.511 165.489 60.3132 165.489 46.5C165.489 32.6868 176.687 21.489 190.5 21.489C204.313 21.489 215.511 32.6868 215.511 46.5C215.511 60.3132 204.313 71.511 190.5 71.511Z" fill="white"/>
</mask>
<g mask="url(#mask9_1535_642)">
<path d="M197.127 70.3896C199.975 70.251 202.823 70.2132 205.67 70.2762C206.477 70.3014 207.283 70.3266 208.077 70.3644C208.215 70.3644 208.026 70.4778 208.001 70.4904C207.875 70.5534 207.724 70.6038 207.585 70.5912C204.763 70.4652 201.941 70.44 199.118 70.5156C198.324 70.5408 197.531 70.566 196.737 70.6164C196.623 70.6164 196.611 70.5786 196.712 70.5156C196.825 70.4526 196.989 70.3896 197.127 70.3896Z" fill="#0D0065"/>
</g>
<mask id="mask10_1535_642" style="mask-type:luminance" maskUnits="userSpaceOnUse" x="165" y="21" width="51" height="51">
<path d="M190.5 71.511C176.687 71.511 165.489 60.3132 165.489 46.5C165.489 32.6868 176.687 21.489 190.5 21.489C204.313 21.489 215.511 32.6868 215.511 46.5C215.511 60.3132 204.313 71.511 190.5 71.511Z" fill="white"/>
</mask>
<g mask="url(#mask10_1535_642)">
<path d="M215.486 49.713C213.142 51.477 211.416 53.9592 210.547 56.7438C210.458 57.021 209.954 56.9328 209.929 56.6556C209.652 52.7748 209.362 48.894 209.085 45.0132C209.009 43.9044 208.921 42.783 208.846 41.6742C209.047 41.6994 209.261 41.7372 209.463 41.7624C207.787 44.9628 206.111 48.1632 204.448 51.3636C204.347 51.5652 203.906 51.603 203.843 51.3384C202.911 47.3694 201.979 43.413 201.046 39.444C201.248 39.4566 201.449 39.4566 201.651 39.4692C200.215 42.279 198.942 45.177 197.821 48.1254C197.732 48.3648 197.304 48.327 197.216 48.1002C196.22 45.4542 195.023 42.8838 193.625 40.4268C193.826 40.389 194.015 40.3638 194.217 40.326C193.902 42.3924 193.574 44.4588 193.259 46.5252C193.209 46.815 192.831 46.7898 192.667 46.626C191.231 45.0636 189.794 43.5138 188.358 41.9514C188.547 41.9388 188.749 41.9262 188.938 41.9136C188.522 43.3626 188.106 44.8242 187.703 46.2732C187.64 46.5 187.237 46.4748 187.123 46.311C186.254 45.0006 185.195 43.8162 183.986 42.8082C184.162 42.783 184.339 42.7452 184.515 42.72C184.099 43.98 183.696 45.2274 183.28 46.4874C183.205 46.7016 182.814 46.7016 182.701 46.5252C181.919 45.2274 180.949 44.0556 179.828 43.0476C180.004 42.9972 180.193 42.9468 180.37 42.8964C180.092 44.3454 179.639 45.7566 178.996 47.0922C178.895 47.2938 178.543 47.3064 178.417 47.13C177.32 45.5676 176.086 44.1186 174.712 42.8082C174.889 42.783 175.065 42.7452 175.241 42.72C174.687 44.547 174.12 46.374 173.566 48.2136C173.49 48.4782 173.049 48.4026 172.961 48.1884C172.054 46.0338 170.857 44.0052 169.408 42.1656C169.597 42.153 169.798 42.1404 169.987 42.1278C169.294 44.4336 168.614 46.7394 167.921 49.0452C167.845 49.3098 167.404 49.2216 167.316 49.02C166.27 46.8276 165.224 44.6352 164.166 42.4302C164.027 42.1278 164.645 42.0522 164.783 42.3294C165.829 44.5218 166.875 46.7142 167.933 48.9192C167.732 48.9066 167.53 48.9066 167.329 48.894C168.022 46.5882 168.702 44.2824 169.395 41.9766C169.471 41.7372 169.849 41.7876 169.975 41.9388C171.449 43.8162 172.671 45.8826 173.591 48.075C173.389 48.0624 173.188 48.0624 172.986 48.0498C173.54 46.2228 174.107 44.3958 174.662 42.5562C174.725 42.3546 175.065 42.3546 175.191 42.468C176.602 43.8162 177.875 45.2904 178.996 46.8906C178.807 46.9032 178.606 46.9158 178.417 46.9284C179.047 45.6432 179.5 44.2698 179.765 42.8586C179.803 42.6318 180.143 42.5562 180.307 42.7074C181.466 43.7532 182.461 44.9502 183.268 46.2858C183.079 46.2984 182.877 46.311 182.688 46.3236C183.104 45.0636 183.507 43.8162 183.923 42.5562C183.986 42.3546 184.313 42.3546 184.452 42.468C185.699 43.5138 186.783 44.7234 187.678 46.0716C187.489 46.0842 187.287 46.0968 187.098 46.1094C187.514 44.6604 187.93 43.1988 188.333 41.7498C188.408 41.4978 188.786 41.5734 188.912 41.712C190.349 43.2744 191.785 44.8242 193.222 46.3866C193.02 46.4244 192.831 46.4496 192.629 46.4874C192.944 44.421 193.272 42.3546 193.587 40.2882C193.625 40.0362 194.053 39.9732 194.179 40.1874C195.59 42.6822 196.813 45.2904 197.821 47.9742C197.619 47.9616 197.417 47.9616 197.216 47.949C198.337 45.0006 199.61 42.1026 201.046 39.2928C201.147 39.0912 201.588 39.0534 201.651 39.318C202.583 43.287 203.516 47.2434 204.448 51.2124C204.247 51.1998 204.045 51.1998 203.843 51.1872C205.519 47.9868 207.195 44.7864 208.858 41.586C208.984 41.3466 209.45 41.3718 209.476 41.6742C209.753 45.555 210.043 49.4358 210.32 53.3166C210.395 54.4254 210.484 55.5468 210.559 56.6556C210.358 56.6304 210.143 56.5926 209.942 56.5674C210.836 53.6946 212.638 51.1368 215.057 49.3224C215.297 49.1712 215.801 49.4736 215.486 49.713Z" fill="#0D0065"/>
</g>
<mask id="mask11_1535_642" style="mask-type:luminance" maskUnits="userSpaceOnUse" x="165" y="21" width="51" height="51">
<path d="M190.5 71.511C176.687 71.511 165.489 60.3132 165.489 46.5C165.489 32.6868 176.687 21.489 190.5 21.489C204.313 21.489 215.511 32.6868 215.511 46.5C215.511 60.3132 204.313 71.511 190.5 71.511Z" fill="white"/>
</mask>
<g mask="url(#mask11_1535_642)">
<path d="M212.953 35.7018C211.895 37.9068 211.076 40.2252 210.534 42.6192C210.509 42.7452 210.169 43.1736 210.055 42.909C209.274 41.0568 208.531 39.1794 207.825 37.2894C207.485 36.3822 207.157 35.475 206.83 34.5678C206.578 33.8622 206.3 33.1566 205.922 32.514C205.507 31.8084 204.952 31.1784 204.184 30.8508C204.322 30.7122 204.448 30.5736 204.587 30.435C204.914 33.522 204.209 36.6846 202.609 39.3432C202.558 39.4314 202.256 39.7086 202.18 39.4944C201.16 36.5334 199.925 33.4968 197.77 31.1784C197.165 30.5358 196.498 29.9562 195.779 29.4522C195.931 29.3388 196.082 29.238 196.233 29.1246C195.994 32.7156 195.641 36.294 195.162 39.8598C195.137 40.011 194.809 40.389 194.683 40.1496C193.474 37.7178 192.226 35.2356 190.374 33.207C189.857 32.64 189.29 32.1108 188.673 31.6446C188.824 31.5186 188.975 31.38 189.127 31.254C189.341 34.8198 188.711 38.4234 187.3 41.6994C187.262 41.8002 186.922 42.1656 186.833 41.9136C185.888 39.0912 184.893 36.168 182.94 33.8496C183.091 33.7362 183.242 33.6354 183.394 33.522C183.104 35.2482 182.827 36.9618 182.537 38.688C182.31 40.0866 182.02 41.5104 181.1 42.6318C181.05 42.6948 180.773 42.8964 180.722 42.7074C179.891 39.822 178.543 37.1004 176.753 34.7064C176.917 34.6056 177.068 34.5174 177.232 34.4166C176.489 37.302 175.141 40.011 173.301 42.3546C173.225 42.4554 172.936 42.6192 172.91 42.3798C172.621 39.3432 172.293 36.0672 170.365 33.5724C170.479 33.5346 170.592 33.4968 170.718 33.459C168.765 35.8026 166.925 38.247 165.212 40.7796C165.149 40.8804 164.998 41.0442 164.859 40.9938C164.72 40.9434 164.758 40.767 164.821 40.6788C166.56 38.0958 168.437 35.6136 170.428 33.2196C170.479 33.1566 170.693 32.9928 170.781 33.1062C172.759 35.664 173.125 38.9904 173.414 42.1026C173.288 42.1152 173.15 42.1152 173.024 42.1278C174.775 39.9102 176.048 37.3398 176.753 34.6056C176.791 34.4418 177.068 34.089 177.232 34.3158C179.021 36.7224 180.37 39.444 181.201 42.3168C181.075 42.342 180.949 42.3672 180.823 42.3924C181.705 41.334 181.894 39.8976 182.108 38.5746C182.373 36.9492 182.65 35.3238 182.915 33.6858C182.94 33.5598 183.217 33.1818 183.368 33.3582C185.347 35.7018 186.355 38.6376 187.325 41.5104C187.174 41.586 187.022 41.649 186.859 41.7246C188.245 38.5242 188.862 35.0214 188.648 31.5438C188.635 31.3674 188.9 31.002 189.101 31.1532C191.294 32.829 192.806 35.1978 194.091 37.617C194.469 38.3226 194.822 39.0282 195.175 39.7338C195.011 39.8346 194.86 39.9228 194.696 40.0236C195.175 36.4578 195.54 32.8794 195.767 29.2884C195.779 29.112 196.031 28.8474 196.22 28.9608C198.866 30.7752 200.542 33.6228 201.739 36.5208C202.092 37.365 202.407 38.2218 202.697 39.0912C202.558 39.1416 202.407 39.192 202.268 39.2424C203.793 36.6972 204.448 33.6858 204.133 30.7374C204.121 30.5736 204.347 30.246 204.536 30.3216C205.948 30.9264 206.653 32.3502 207.17 33.711C207.875 35.5632 208.518 37.428 209.236 39.2802C209.665 40.3638 210.106 41.4348 210.547 42.5058C210.383 42.6066 210.232 42.6948 210.068 42.7956C210.622 40.3638 211.441 37.995 212.525 35.7396C212.588 35.6136 212.701 35.4624 212.852 35.4498C212.966 35.4498 213.004 35.601 212.953 35.7018Z" fill="#0D0065"/>
</g>
<mask id="mask12_1535_642" style="mask-type:luminance" maskUnits="userSpaceOnUse" x="165" y="21" width="51" height="51">
<path d="M190.5 71.511C176.687 71.511 165.489 60.3132 165.489 46.5C165.489 32.6868 176.687 21.489 190.5 21.489C204.313 21.489 215.511 32.6868 215.511 46.5C215.511 60.3132 204.313 71.511 190.5 71.511Z" fill="white"/>
</mask>
<g mask="url(#mask12_1535_642)">
<path d="M207.044 31.506C207.145 29.1876 206.792 26.8566 206.023 24.6768C205.796 24.0468 205.544 23.4294 205.255 22.8372C205.431 22.749 205.607 22.6608 205.784 22.5726C205.318 25.0044 204.788 27.5874 203.125 29.5278C203.05 29.616 202.672 29.8806 202.634 29.6286C202.193 26.7936 201.714 23.8326 200.252 21.3126C199.849 20.6196 199.383 19.977 198.829 19.3974C199.005 19.2966 199.181 19.1832 199.358 19.0824C199.358 21.7032 199.018 24.324 198.325 26.8566C198.136 27.5748 197.909 28.2804 197.657 28.986C197.606 29.112 197.165 29.4018 197.128 29.1498C196.687 26.403 195.805 23.7192 194.519 21.2496C194.154 20.5566 193.763 19.8762 193.348 19.2084C193.524 19.1202 193.7 19.032 193.877 18.9438C193.524 21.7032 194.078 24.513 193.65 27.2598C193.524 28.0284 193.322 28.7718 193.02 29.49C192.97 29.5908 192.856 29.679 192.755 29.7168C192.692 29.742 192.541 29.7798 192.503 29.6916C191.596 27.5874 190.664 25.4076 189.101 23.694C188.673 23.2152 188.194 22.7868 187.665 22.4214C187.829 22.308 187.993 22.1946 188.156 22.0686C188.27 24.6642 188.396 27.285 187.967 29.8554C187.841 30.5862 187.678 31.2918 187.463 31.9974C187.413 32.1612 187.022 32.4888 186.909 32.2116C186.065 30.0948 185.158 27.8772 183.557 26.2014C183.116 25.7352 182.612 25.332 182.071 24.9918C182.234 24.891 182.398 24.7902 182.562 24.702C182.423 25.9494 182.297 27.2094 182.159 28.4568C182.02 29.6538 181.856 30.8382 181.567 32.01C181.403 32.6652 181.201 33.3204 180.949 33.9504C180.886 34.089 180.496 34.3662 180.42 34.1142C179.79 32.0604 179.147 29.9436 177.875 28.1796C177.522 27.6882 177.119 27.2346 176.678 26.8314C176.854 26.7432 177.031 26.655 177.207 26.5668C176.917 28.9104 176.237 31.2036 175.191 33.333C174.901 33.9378 174.574 34.5174 174.221 35.0844C174.158 35.1852 173.742 35.4246 173.729 35.1852C173.553 32.2242 172.885 29.2758 171.751 26.5416C171.424 25.7604 171.071 25.0044 170.68 24.2484C170.567 24.0216 171.083 23.6814 171.197 23.883C172.595 26.529 173.553 29.4018 174.019 32.3628C174.145 33.207 174.246 34.0512 174.296 34.908C174.133 34.9458 173.969 34.971 173.805 35.0088C175.002 33.0558 175.859 30.9012 176.35 28.671C176.489 28.0284 176.602 27.3858 176.678 26.7306C176.703 26.529 177.043 26.3148 177.207 26.466C178.832 27.9528 179.74 30.0066 180.433 32.0604C180.634 32.6526 180.811 33.2448 181 33.8496C180.823 33.9 180.647 33.9504 180.47 34.0134C181.352 31.7832 181.554 29.364 181.819 27.0078C181.894 26.3022 181.97 25.5966 182.045 24.891C182.058 24.7272 182.373 24.4878 182.537 24.6012C184.553 25.8612 185.775 27.9906 186.707 30.12C186.985 30.7374 187.224 31.3548 187.476 31.9848C187.287 32.0604 187.111 32.136 186.922 32.199C187.69 29.7294 187.778 27.1338 187.703 24.5634C187.678 23.8326 187.652 23.1018 187.615 22.371C187.602 22.1946 187.93 21.8922 188.106 22.0182C190.021 23.3664 191.231 25.4328 192.201 27.5118C192.491 28.1166 192.755 28.734 193.02 29.3514C192.844 29.4144 192.68 29.49 192.503 29.553C193.6 26.9952 193.196 24.1476 193.196 21.4512C193.196 20.67 193.222 19.9014 193.322 19.1202C193.348 18.9564 193.726 18.654 193.852 18.8556C195.364 21.2244 196.498 23.8326 197.191 26.5542C197.392 27.3228 197.543 28.104 197.682 28.8852C197.506 28.9356 197.329 28.986 197.153 29.049C198.01 26.6298 198.526 24.1098 198.728 21.552C198.778 20.8212 198.803 20.103 198.803 19.3722C198.803 19.1706 199.156 18.8682 199.333 19.0572C201.349 21.1992 202.205 24.0846 202.747 26.907C202.911 27.726 203.037 28.5576 203.163 29.3766C202.999 29.4144 202.835 29.4396 202.672 29.4774C204.297 27.5748 204.788 25.08 205.242 22.7238C205.267 22.6104 205.381 22.497 205.481 22.4466C205.544 22.4088 205.721 22.3584 205.771 22.4592C206.804 24.6012 207.422 26.9322 207.573 29.301C207.611 29.9814 207.623 30.6618 207.586 31.3296C207.586 31.5564 207.031 31.821 207.044 31.506Z" fill="#0D0065"/>
</g>
<mask id="mask13_1535_642" style="mask-type:luminance" maskUnits="userSpaceOnUse" x="165" y="21" width="51" height="51">
<path d="M190.5 71.511C176.687 71.511 165.489 60.3132 165.489 46.5C165.489 32.6868 176.687 21.489 190.5 21.489C204.313 21.489 215.511 32.6868 215.511 46.5C215.511 60.3132 204.313 71.511 190.5 71.511Z" fill="white"/>
</mask>
<g mask="url(#mask13_1535_642)">
<path d="M185.876 22.497C184.553 21.0732 183.104 19.788 181.541 18.654C181.693 18.6918 181.856 18.7296 182.008 18.78C181.667 21.1236 181.163 23.4546 180.47 25.7226C180.433 25.8612 180.055 25.6344 180.004 25.5966C179.223 25.0296 178.442 24.4752 177.661 23.9082C177.598 23.8578 177.497 23.7444 177.623 23.7192C177.749 23.694 177.938 23.8074 178.026 23.8704C178.807 24.4374 179.588 24.9918 180.37 25.5588C180.218 25.521 180.055 25.4832 179.903 25.4328C180.596 23.1648 181.1 20.8464 181.441 18.4902C181.466 18.3516 181.869 18.591 181.907 18.6162C183.52 19.788 185.006 21.0984 186.355 22.56C186.43 22.6482 186.405 22.7112 186.279 22.6986C186.14 22.686 185.977 22.5978 185.876 22.497Z" fill="#0D0065"/>
</g>
<mask id="mask14_1535_642" style="mask-type:luminance" maskUnits="userSpaceOnUse" x="165" y="21" width="51" height="51">
<path d="M190.5 71.511C176.687 71.511 165.489 60.3132 165.489 46.5C165.489 32.6868 176.687 21.489 190.5 21.489C204.313 21.489 215.511 32.6868 215.511 46.5C215.511 60.3132 204.313 71.511 190.5 71.511Z" fill="white"/>
</mask>
<g mask="url(#mask14_1535_642)">
<path d="M193.776 71.3346C193.94 69.9612 193.789 68.5626 193.348 67.2522C193.499 67.2018 193.663 67.1514 193.814 67.101C192.516 68.7264 191.332 70.44 190.248 72.2292C190.198 72.3048 189.807 72.6072 189.782 72.3804C189.505 70.2762 189.719 68.1216 189.328 66.03C189.227 65.4504 189.064 64.8708 188.837 64.3164C189.001 64.2408 189.177 64.1778 189.341 64.1022C188.358 66.4206 187.375 68.7516 186.355 71.0448C186.065 71.7 185.775 72.3552 185.473 72.9978C185.422 73.1112 185.309 73.212 185.195 73.2624C185.132 73.2876 184.994 73.3254 184.969 73.212C184.553 70.7172 184.15 68.2224 183.721 65.7402C183.633 65.274 183.52 64.707 183.053 64.4676C183.205 64.3542 183.368 64.2408 183.52 64.14C183.066 66.4332 182.499 68.7012 181.844 70.9314C181.655 71.574 181.453 72.2166 181.252 72.8466C181.214 72.9726 181.126 73.0608 181.025 73.1238C180.974 73.149 180.785 73.2372 180.748 73.149C179.84 71.1582 178.921 69.18 178.013 67.1892C177.761 66.6348 177.497 66.0678 177.245 65.5134C177.409 65.4252 177.572 65.3496 177.736 65.2614C177.043 67.0884 176.338 68.928 175.645 70.755C175.594 70.881 175.43 71.007 175.292 71.0322C175.166 71.0574 175.103 70.9818 175.153 70.8558C175.846 69.0288 176.552 67.1892 177.245 65.3622C177.283 65.2614 177.396 65.1606 177.497 65.1228C177.547 65.0976 177.698 65.0346 177.736 65.1102C178.643 67.101 179.563 69.0792 180.47 71.07C180.722 71.6244 180.987 72.1914 181.239 72.7458C181.075 72.8466 180.899 72.9474 180.735 73.0482C181.453 70.8306 182.083 68.5752 182.6 66.2946C182.751 65.6394 182.89 64.9842 183.016 64.329C183.041 64.1778 183.318 63.9006 183.482 64.0014C183.898 64.2156 184.074 64.644 184.187 65.085C184.326 65.6646 184.402 66.2694 184.502 66.8616C184.717 68.1342 184.931 69.4068 185.145 70.692C185.271 71.4228 185.384 72.1536 185.51 72.8844C185.347 72.96 185.17 73.023 185.006 73.0986C186.052 70.8054 187.048 68.487 188.043 66.1686C188.32 65.5134 188.597 64.8456 188.875 64.1904C188.925 64.0644 189.29 63.7494 189.379 63.9762C190.172 65.967 190.072 68.1342 190.16 70.2384C190.185 70.8432 190.223 71.448 190.311 72.0402C190.16 72.0906 189.996 72.141 189.845 72.1914C190.928 70.4148 192.113 68.7012 193.411 67.0632C193.486 66.975 193.814 66.6978 193.877 66.912C194.33 68.2476 194.469 69.684 194.305 71.0952C194.293 71.2338 194.129 71.3598 194.003 71.4102C193.902 71.4606 193.763 71.4732 193.776 71.3346Z" fill="#0D0065"/>
</g>
<path d="M236.064 34.288L235.392 40H232.544L234.352 28.24L239.12 35.072L243.904 28.24L245.712 40H242.864L242.192 34.288L239.12 38.96L236.064 34.288ZM248.87 37.696C248.87 37.888 248.918 38.0533 249.014 38.192C249.11 38.32 249.238 38.4213 249.398 38.496C249.558 38.56 249.734 38.592 249.926 38.592C250.203 38.592 250.459 38.5333 250.694 38.416C250.929 38.2987 251.121 38.1227 251.27 37.888C251.419 37.6533 251.494 37.3653 251.494 37.024L251.75 37.984C251.75 38.4533 251.622 38.8533 251.366 39.184C251.11 39.504 250.779 39.7493 250.374 39.92C249.969 40.08 249.531 40.16 249.062 40.16C248.593 40.16 248.155 40.0747 247.75 39.904C247.355 39.7227 247.035 39.456 246.79 39.104C246.555 38.752 246.438 38.3253 246.438 37.824C246.438 37.12 246.689 36.5653 247.19 36.16C247.691 35.744 248.401 35.536 249.318 35.536C249.766 35.536 250.166 35.5787 250.518 35.664C250.881 35.7493 251.19 35.856 251.446 35.984C251.702 36.112 251.894 36.2453 252.022 36.384V37.456C251.766 37.264 251.467 37.12 251.126 37.024C250.795 36.9173 250.443 36.864 250.07 36.864C249.782 36.864 249.553 36.896 249.382 36.96C249.211 37.024 249.083 37.12 248.998 37.248C248.913 37.3653 248.87 37.5147 248.87 37.696ZM247.798 34.896L246.982 33.28C247.398 33.0773 247.899 32.8853 248.486 32.704C249.073 32.5227 249.713 32.432 250.406 32.432C251.057 32.432 251.638 32.528 252.15 32.72C252.662 32.9013 253.067 33.168 253.366 33.52C253.665 33.872 253.814 34.304 253.814 34.816V40H251.494V35.36C251.494 35.1787 251.462 35.024 251.398 34.896C251.345 34.7573 251.259 34.64 251.142 34.544C251.025 34.448 250.875 34.3787 250.694 34.336C250.523 34.2933 250.326 34.272 250.102 34.272C249.771 34.272 249.446 34.3093 249.126 34.384C248.817 34.4587 248.545 34.5493 248.31 34.656C248.075 34.752 247.905 34.832 247.798 34.896ZM257.811 32.64V40H255.427V32.64H257.811ZM259.939 35.136C259.811 35.008 259.672 34.9067 259.523 34.832C259.384 34.7573 259.208 34.72 258.995 34.72C258.76 34.72 258.552 34.784 258.371 34.912C258.19 35.04 258.051 35.2267 257.955 35.472C257.859 35.7173 257.811 36.016 257.811 36.368L257.235 35.52C257.235 34.9333 257.347 34.4107 257.571 33.952C257.806 33.4933 258.11 33.1307 258.483 32.864C258.856 32.5973 259.246 32.464 259.651 32.464C259.918 32.464 260.174 32.5173 260.419 32.624C260.664 32.7307 260.851 32.88 260.979 33.072L259.939 35.136ZM273.041 35.264V40H270.609V35.52C270.609 35.072 270.534 34.736 270.385 34.512C270.246 34.2773 270.012 34.16 269.681 34.16C269.468 34.16 269.276 34.2133 269.105 34.32C268.945 34.416 268.817 34.5653 268.721 34.768C268.636 34.9707 268.593 35.2213 268.593 35.52V40H266.161V35.52C266.161 35.072 266.086 34.736 265.937 34.512C265.798 34.2773 265.564 34.16 265.233 34.16C265.02 34.16 264.828 34.2133 264.657 34.32C264.497 34.416 264.369 34.5653 264.273 34.768C264.188 34.9707 264.145 35.2213 264.145 35.52V40H261.809V32.64H264.145V33.728C264.348 33.3333 264.625 33.024 264.977 32.8C265.34 32.576 265.772 32.464 266.273 32.464C266.849 32.464 267.308 32.5707 267.649 32.784C267.99 32.9867 268.236 33.2853 268.385 33.68C268.652 33.296 268.982 32.9973 269.377 32.784C269.772 32.5707 270.22 32.464 270.721 32.464C271.297 32.464 271.75 32.576 272.081 32.8C272.422 33.0133 272.668 33.328 272.817 33.744C272.966 34.16 273.041 34.6667 273.041 35.264ZM274.306 36.32C274.306 35.5413 274.487 34.864 274.85 34.288C275.213 33.712 275.714 33.264 276.354 32.944C276.994 32.624 277.714 32.464 278.514 32.464C279.314 32.464 280.029 32.624 280.658 32.944C281.298 33.264 281.799 33.712 282.162 34.288C282.535 34.864 282.722 35.5413 282.722 36.32C282.722 37.088 282.535 37.76 282.162 38.336C281.799 38.912 281.298 39.36 280.658 39.68C280.029 40 279.314 40.16 278.514 40.16C277.714 40.16 276.994 40 276.354 39.68C275.714 39.36 275.213 38.912 274.85 38.336C274.487 37.76 274.306 37.088 274.306 36.32ZM276.786 36.32C276.786 36.704 276.866 37.0347 277.026 37.312C277.186 37.5787 277.394 37.7867 277.65 37.936C277.906 38.0853 278.194 38.16 278.514 38.16C278.823 38.16 279.106 38.0853 279.362 37.936C279.629 37.7867 279.837 37.5787 279.986 37.312C280.146 37.0347 280.226 36.704 280.226 36.32C280.226 35.936 280.146 35.6053 279.986 35.328C279.837 35.0507 279.629 34.8373 279.362 34.688C279.106 34.5387 278.823 34.464 278.514 34.464C278.194 34.464 277.906 34.5387 277.65 34.688C277.394 34.8373 277.186 35.0507 277.026 35.328C276.866 35.6053 276.786 35.936 276.786 36.32ZM286.364 32.64V40H283.98V32.64H286.364ZM288.492 35.136C288.364 35.008 288.225 34.9067 288.076 34.832C287.937 34.7573 287.761 34.72 287.548 34.72C287.313 34.72 287.105 34.784 286.924 34.912C286.742 35.04 286.604 35.2267 286.508 35.472C286.412 35.7173 286.364 36.016 286.364 36.368L285.788 35.52C285.788 34.9333 285.9 34.4107 286.124 33.952C286.358 33.4933 286.662 33.1307 287.036 32.864C287.409 32.5973 287.798 32.464 288.204 32.464C288.47 32.464 288.726 32.5173 288.972 32.624C289.217 32.7307 289.404 32.88 289.532 33.072L288.492 35.136ZM293.871 40.16C293.018 40.16 292.277 40.0053 291.647 39.696C291.029 39.376 290.549 38.928 290.207 38.352C289.866 37.776 289.695 37.0987 289.695 36.32C289.695 35.5307 289.861 34.848 290.191 34.272C290.522 33.696 290.997 33.2533 291.615 32.944C292.245 32.6347 292.986 32.48 293.839 32.48C294.693 32.48 295.413 32.6293 295.999 32.928C296.586 33.216 297.034 33.6373 297.343 34.192C297.653 34.7467 297.807 35.4187 297.807 36.208C297.807 36.3253 297.807 36.4427 297.807 36.56C297.807 36.6667 297.797 36.7573 297.775 36.832H291.055V35.488H295.599L295.023 36.224C295.077 36.1493 295.119 36.0587 295.151 35.952C295.194 35.8347 295.215 35.7387 295.215 35.664C295.215 35.344 295.157 35.0667 295.039 34.832C294.922 34.5973 294.757 34.416 294.543 34.288C294.33 34.16 294.079 34.096 293.791 34.096C293.429 34.096 293.125 34.176 292.879 34.336C292.634 34.496 292.447 34.7413 292.319 35.072C292.202 35.392 292.138 35.7973 292.127 36.288C292.127 36.736 292.191 37.12 292.319 37.44C292.447 37.76 292.639 38.0053 292.895 38.176C293.151 38.336 293.466 38.416 293.839 38.416C294.266 38.416 294.629 38.336 294.927 38.176C295.237 38.016 295.482 37.776 295.663 37.456L297.823 37.984C297.439 38.7093 296.917 39.2533 296.255 39.616C295.605 39.9787 294.81 40.16 293.871 40.16ZM299.503 37.328C299.877 37.6373 300.213 37.8827 300.511 38.064C300.821 38.2347 301.093 38.3573 301.327 38.432C301.562 38.496 301.765 38.528 301.935 38.528C302.181 38.528 302.362 38.4747 302.479 38.368C302.597 38.2613 302.655 38.1227 302.655 37.952C302.655 37.792 302.607 37.6587 302.511 37.552C302.415 37.4347 302.25 37.3227 302.015 37.216C301.791 37.1093 301.482 36.9973 301.087 36.88C300.735 36.752 300.399 36.6027 300.079 36.432C299.77 36.2507 299.514 36.0107 299.311 35.712C299.109 35.4133 299.007 35.0293 299.007 34.56C299.007 34.112 299.125 33.7333 299.359 33.424C299.605 33.1147 299.93 32.88 300.335 32.72C300.751 32.56 301.226 32.48 301.759 32.48C302.186 32.48 302.581 32.528 302.943 32.624C303.317 32.72 303.663 32.848 303.983 33.008C304.314 33.168 304.623 33.3547 304.911 33.568L304.047 35.136C303.738 34.848 303.386 34.6133 302.991 34.432C302.597 34.24 302.234 34.144 301.903 34.144C301.679 34.144 301.509 34.1867 301.391 34.272C301.285 34.3573 301.231 34.4693 301.231 34.608C301.231 34.768 301.295 34.9013 301.423 35.008C301.562 35.1147 301.754 35.216 301.999 35.312C302.255 35.3973 302.565 35.5093 302.927 35.648C303.311 35.7867 303.663 35.9467 303.983 36.128C304.314 36.3093 304.575 36.5387 304.767 36.816C304.97 37.0933 305.071 37.4613 305.071 37.92C305.071 38.7093 304.826 39.3067 304.335 39.712C303.855 40.1067 303.178 40.304 302.303 40.304C301.77 40.304 301.274 40.24 300.815 40.112C300.367 39.9947 299.951 39.8347 299.567 39.632C299.183 39.4187 298.826 39.184 298.495 38.928L299.503 37.328ZM238.736 59.952V57.872H244.4C244.453 58.768 244.363 59.6053 244.128 60.384C243.893 61.1627 243.531 61.8507 243.04 62.448C242.549 63.0453 241.936 63.5147 241.2 63.856C240.464 64.1867 239.621 64.352 238.672 64.352C237.776 64.352 236.955 64.2133 236.208 63.936C235.461 63.648 234.816 63.2427 234.272 62.72C233.728 62.1867 233.301 61.5573 232.992 60.832C232.693 60.096 232.544 59.2853 232.544 58.4C232.544 57.5147 232.699 56.7147 233.008 56C233.317 55.2747 233.755 54.656 234.32 54.144C234.885 53.632 235.547 53.2373 236.304 52.96C237.061 52.6827 237.883 52.544 238.768 52.544C239.557 52.544 240.267 52.656 240.896 52.88C241.525 53.104 242.08 53.4187 242.56 53.824C243.051 54.2187 243.472 54.6773 243.824 55.2L241.424 56.448C241.168 56 240.821 55.632 240.384 55.344C239.957 55.0453 239.419 54.896 238.768 54.896C238.149 54.896 237.579 55.0347 237.056 55.312C236.544 55.5893 236.133 55.9893 235.824 56.512C235.525 57.024 235.376 57.6533 235.376 58.4C235.376 59.136 235.52 59.776 235.808 60.32C236.107 60.8533 236.507 61.2693 237.008 61.568C237.52 61.856 238.107 62 238.768 62C239.173 62 239.541 61.952 239.872 61.856C240.203 61.7493 240.485 61.6053 240.72 61.424C240.955 61.232 241.152 61.0133 241.312 60.768C241.483 60.512 241.616 60.24 241.712 59.952H238.736ZM248.163 56.64V64H245.779V56.64H248.163ZM250.291 59.136C250.163 59.008 250.025 58.9067 249.875 58.832C249.737 58.7573 249.561 58.72 249.347 58.72C249.113 58.72 248.905 58.784 248.723 58.912C248.542 59.04 248.403 59.2267 248.307 59.472C248.211 59.7173 248.163 60.016 248.163 60.368L247.587 59.52C247.587 58.9333 247.699 58.4107 247.923 57.952C248.158 57.4933 248.462 57.1307 248.835 56.864C249.209 56.5973 249.598 56.464 250.003 56.464C250.27 56.464 250.526 56.5173 250.771 56.624C251.017 56.7307 251.203 56.88 251.331 57.072L250.291 59.136ZM254.033 61.696C254.033 61.888 254.081 62.0533 254.177 62.192C254.273 62.32 254.401 62.4213 254.561 62.496C254.721 62.56 254.897 62.592 255.089 62.592C255.367 62.592 255.623 62.5333 255.857 62.416C256.092 62.2987 256.284 62.1227 256.433 61.888C256.583 61.6533 256.657 61.3653 256.657 61.024L256.913 61.984C256.913 62.4533 256.785 62.8533 256.529 63.184C256.273 63.504 255.943 63.7493 255.537 63.92C255.132 64.08 254.695 64.16 254.225 64.16C253.756 64.16 253.319 64.0747 252.913 63.904C252.519 63.7227 252.199 63.456 251.953 63.104C251.719 62.752 251.601 62.3253 251.601 61.824C251.601 61.12 251.852 60.5653 252.353 60.16C252.855 59.744 253.564 59.536 254.481 59.536C254.929 59.536 255.329 59.5787 255.681 59.664C256.044 59.7493 256.353 59.856 256.609 59.984C256.865 60.112 257.057 60.2453 257.185 60.384V61.456C256.929 61.264 256.631 61.12 256.289 61.024C255.959 60.9173 255.607 60.864 255.233 60.864C254.945 60.864 254.716 60.896 254.545 60.96C254.375 61.024 254.247 61.12 254.161 61.248C254.076 61.3653 254.033 61.5147 254.033 61.696ZM252.961 58.896L252.145 57.28C252.561 57.0773 253.063 56.8853 253.649 56.704C254.236 56.5227 254.876 56.432 255.569 56.432C256.22 56.432 256.801 56.528 257.313 56.72C257.825 56.9013 258.231 57.168 258.529 57.52C258.828 57.872 258.977 58.304 258.977 58.816V64H256.657V59.36C256.657 59.1787 256.625 59.024 256.561 58.896C256.508 58.7573 256.423 58.64 256.305 58.544C256.188 58.448 256.039 58.3787 255.857 58.336C255.687 58.2933 255.489 58.272 255.265 58.272C254.935 58.272 254.609 58.3093 254.289 58.384C253.98 58.4587 253.708 58.5493 253.473 58.656C253.239 58.752 253.068 58.832 252.961 58.896ZM265.374 59.52C265.374 59.0827 265.289 58.7467 265.118 58.512C264.958 58.2773 264.686 58.16 264.302 58.16C264.046 58.16 263.822 58.2133 263.63 58.32C263.438 58.4267 263.289 58.5813 263.182 58.784C263.076 58.9867 263.022 59.232 263.022 59.52V64H260.59V56.64H263.022V57.744C263.236 57.3387 263.524 57.024 263.886 56.8C264.26 56.576 264.718 56.464 265.262 56.464C266.18 56.464 266.846 56.7093 267.262 57.2C267.678 57.6907 267.886 58.3787 267.886 59.264V64H265.374V59.52ZM269.453 53.872C269.453 53.488 269.592 53.1787 269.869 52.944C270.147 52.6987 270.477 52.576 270.861 52.576C271.256 52.576 271.587 52.6987 271.853 52.944C272.131 53.1787 272.269 53.488 272.269 53.872C272.269 54.256 272.131 54.5707 271.853 54.816C271.587 55.0613 271.256 55.184 270.861 55.184C270.477 55.184 270.147 55.0613 269.869 54.816C269.592 54.5707 269.453 54.256 269.453 53.872ZM269.693 56.64H272.029V64H269.693V56.64ZM272.959 56.64H277.887V58.64H272.959V56.64ZM274.255 54.08H276.575V64H274.255V54.08ZM278.289 60.32C278.289 59.5413 278.47 58.864 278.833 58.288C279.196 57.712 279.697 57.264 280.337 56.944C280.977 56.624 281.697 56.464 282.497 56.464C283.297 56.464 284.012 56.624 284.641 56.944C285.281 57.264 285.782 57.712 286.145 58.288C286.518 58.864 286.705 59.5413 286.705 60.32C286.705 61.088 286.518 61.76 286.145 62.336C285.782 62.912 285.281 63.36 284.641 63.68C284.012 64 283.297 64.16 282.497 64.16C281.697 64.16 280.977 64 280.337 63.68C279.697 63.36 279.196 62.912 278.833 62.336C278.47 61.76 278.289 61.088 278.289 60.32ZM280.769 60.32C280.769 60.704 280.849 61.0347 281.009 61.312C281.169 61.5787 281.377 61.7867 281.633 61.936C281.889 62.0853 282.177 62.16 282.497 62.16C282.806 62.16 283.089 62.0853 283.345 61.936C283.612 61.7867 283.82 61.5787 283.969 61.312C284.129 61.0347 284.209 60.704 284.209 60.32C284.209 59.936 284.129 59.6053 283.969 59.328C283.82 59.0507 283.612 58.8373 283.345 58.688C283.089 58.5387 282.806 58.464 282.497 58.464C282.177 58.464 281.889 58.5387 281.633 58.688C281.377 58.8373 281.169 59.0507 281.009 59.328C280.849 59.6053 280.769 59.936 280.769 60.32ZM288.363 61.328C288.736 61.6373 289.072 61.8827 289.371 62.064C289.68 62.2347 289.952 62.3573 290.187 62.432C290.421 62.496 290.624 62.528 290.795 62.528C291.04 62.528 291.221 62.4747 291.339 62.368C291.456 62.2613 291.515 62.1227 291.515 61.952C291.515 61.792 291.467 61.6587 291.371 61.552C291.275 61.4347 291.109 61.3227 290.875 61.216C290.651 61.1093 290.341 60.9973 289.947 60.88C289.595 60.752 289.259 60.6027 288.939 60.432C288.629 60.2507 288.373 60.0107 288.171 59.712C287.968 59.4133 287.867 59.0293 287.867 58.56C287.867 58.112 287.984 57.7333 288.219 57.424C288.464 57.1147 288.789 56.88 289.195 56.72C289.611 56.56 290.085 56.48 290.619 56.48C291.045 56.48 291.44 56.528 291.803 56.624C292.176 56.72 292.523 56.848 292.843 57.008C293.173 57.168 293.483 57.3547 293.771 57.568L292.907 59.136C292.597 58.848 292.245 58.6133 291.851 58.432C291.456 58.24 291.093 58.144 290.763 58.144C290.539 58.144 290.368 58.1867 290.251 58.272C290.144 58.3573 290.091 58.4693 290.091 58.608C290.091 58.768 290.155 58.9013 290.283 59.008C290.421 59.1147 290.613 59.216 290.859 59.312C291.115 59.3973 291.424 59.5093 291.787 59.648C292.171 59.7867 292.523 59.9467 292.843 60.128C293.173 60.3093 293.435 60.5387 293.627 60.816C293.829 61.0933 293.931 61.4613 293.931 61.92C293.931 62.7093 293.685 63.3067 293.195 63.712C292.715 64.1067 292.037 64.304 291.163 64.304C290.629 64.304 290.133 64.24 289.675 64.112C289.227 63.9947 288.811 63.8347 288.427 63.632C288.043 63.4187 287.685 63.184 287.355 62.928L288.363 61.328Z" fill="#2100BC"/>
<path d="M314.549 40.16C313.696 40.16 312.954 40.0053 312.325 39.696C311.706 39.376 311.226 38.928 310.885 38.352C310.544 37.776 310.373 37.0987 310.373 36.32C310.373 35.5307 310.538 34.848 310.869 34.272C311.2 33.696 311.674 33.2533 312.293 32.944C312.922 32.6347 313.664 32.48 314.517 32.48C315.37 32.48 316.09 32.6293 316.677 32.928C317.264 33.216 317.712 33.6373 318.021 34.192C318.33 34.7467 318.485 35.4187 318.485 36.208C318.485 36.3253 318.485 36.4427 318.485 36.56C318.485 36.6667 318.474 36.7573 318.453 36.832H311.733V35.488H316.277L315.701 36.224C315.754 36.1493 315.797 36.0587 315.829 35.952C315.872 35.8347 315.893 35.7387 315.893 35.664C315.893 35.344 315.834 35.0667 315.717 34.832C315.6 34.5973 315.434 34.416 315.221 34.288C315.008 34.16 314.757 34.096 314.469 34.096C314.106 34.096 313.802 34.176 313.557 34.336C313.312 34.496 313.125 34.7413 312.997 35.072C312.88 35.392 312.816 35.7973 312.805 36.288C312.805 36.736 312.869 37.12 312.997 37.44C313.125 37.76 313.317 38.0053 313.573 38.176C313.829 38.336 314.144 38.416 314.517 38.416C314.944 38.416 315.306 38.336 315.605 38.176C315.914 38.016 316.16 37.776 316.341 37.456L318.501 37.984C318.117 38.7093 317.594 39.2533 316.933 39.616C316.282 39.9787 315.488 40.16 314.549 40.16Z" fill="#0D0065"/>
</svg>
