<svg width="221" height="221" viewBox="0 0 221 221" fill="none" xmlns="http://www.w3.org/2000/svg">
<circle cx="110.5" cy="110.5" r="110.5" fill="#0D0065"/>
<path d="M77.2601 45.5339C76.4897 45.8186 75.266 46.6373 74.5409 47.3847L73.2266 48.7017V83.0843V117.467L80.2059 117.645L87.2305 117.823L80.7951 122.592C76.4443 125.867 74.1783 127.824 73.6798 128.75C73.0906 129.924 73 133.519 73 155.551V181H86.3695H99.7389V159.36L99.7842 137.755L131.508 112.484C148.957 98.5671 163.64 86.7147 164.094 86.1453C164.955 85.1487 165 84.4012 165 74.0437C164.955 65.715 164.819 62.7964 164.366 62.1913C163.368 60.732 144.425 46.0322 142.929 45.5339C140.799 44.822 79.3901 44.822 77.2601 45.5339ZM138.261 71.4454V76.8555L133.14 80.9487C130.33 83.2266 121.674 90.2028 113.879 96.4316L99.7389 107.786V86.9283V66.0353H119H138.261V71.4454Z" fill="#F0EFFF"/>
</svg>
